<?xml version="1.0" encoding="UTF-8"?>
<svg version="1.1" xmlns="http://www.w3.org/2000/svg" width="225" height="225">
<path d="M0 0 C6.62922084 4.97734942 11.0993734 9.97100679 13.1953125 18.1015625 C13.49297776 20.70709997 13.69033203 23.28187241 13.7890625 25.90234375 C14.28049192 28.56267802 15.25925744 29.3000995 17.1953125 31.1015625 C16.99781497 34.95276428 15.66274188 37.20501497 13.1953125 40.1015625 C13.8346875 40.7821875 14.4740625 41.4628125 15.1328125 42.1640625 C17.57829388 45.64702083 18.11829563 47.86563483 18.1953125 52.1015625 C17.21502634 53.44945597 16.21560115 54.78368965 15.1953125 56.1015625 C15.5046875 57.555625 15.5046875 57.555625 15.8203125 59.0390625 C16.0059375 60.555 16.0059375 60.555 16.1953125 62.1015625 C13.8828125 64.9765625 13.8828125 64.9765625 11.1953125 67.1015625 C10.5353125 67.1015625 9.8753125 67.1015625 9.1953125 67.1015625 C9.15792969 67.68164062 9.12054688 68.26171875 9.08203125 68.859375 C8.55147916 75.16358217 7.66445526 79.82735206 2.8203125 84.2890625 C-18.86131286 97.13743309 -57.52738107 89.98532195 -81.0546875 86.7265625 C-81.84520508 86.62496826 -82.63572266 86.52337402 -83.45019531 86.41870117 C-89.19514922 85.5472124 -94.54817905 83.97402077 -98.29296875 79.20703125 C-98.56496094 78.57410156 -98.83695313 77.94117188 -99.1171875 77.2890625 C-99.42140625 76.598125 -99.725625 75.9071875 -100.0390625 75.1953125 C-100.74683942 73.25975928 -101.31392155 71.27431091 -101.8671875 69.2890625 C-102.49701208 66.13700228 -102.49701208 66.13700228 -104.3671875 64.6640625 C-106.47081608 62.37750969 -106.30694845 60.06538733 -106.49609375 57.0390625 C-106.71782826 54.78018705 -106.71782826 54.78018705 -108.8046875 52.1015625 C-108.53163153 46.4934129 -106.72180102 42.14924647 -102.8046875 38.1015625 C-103.4646875 37.4415625 -104.1246875 36.7815625 -104.8046875 36.1015625 C-105.24838979 30.51091365 -105.24838979 30.51091365 -104.8046875 28.1015625 C-104.31226563 27.65296875 -103.81984375 27.204375 -103.3125 26.7421875 C-100.52608451 23.71033645 -101.37717147 19.36214243 -101.30859375 15.42578125 C-100.50067447 10.09601917 -98.07578439 7.16080991 -93.9921875 3.7578125 C-63.83225664 -16.64449367 -31.00044047 -20.98358505 0 0 Z " fill="#533108" transform="translate(164.8046875,81.8984375)"/>
<path d="M0 0 C5.14409564 3.8622882 9.7769334 7.9948792 12.1953125 14.1015625 C12.0234375 16.46875 12.0234375 16.46875 11.4453125 18.9765625 C11.17460937 20.21019531 11.17460937 20.21019531 10.8984375 21.46875 C10.11760166 24.39254641 9.17959785 27.24046186 8.1953125 30.1015625 C-9.13420824 30.96757789 -26.47019903 31.25642242 -43.81945801 31.33374023 C-46.06989929 31.34545836 -48.32032054 31.36239642 -50.57067871 31.38500977 C-87.61697793 31.73563614 -87.61697793 31.73563614 -96.93309021 27.02545166 C-98.80245224 25.87609251 -98.80245224 25.87609251 -101.0546875 26.4765625 C-101.6321875 26.6828125 -102.2096875 26.8890625 -102.8046875 27.1015625 C-102.4746875 26.4415625 -102.1446875 25.7815625 -101.8046875 25.1015625 C-101.60500181 21.88884157 -101.486389 18.67800745 -101.37890625 15.4609375 C-100.46922974 10.13902052 -98.09159668 7.17398682 -93.9921875 3.7578125 C-63.83225664 -16.64449367 -31.00044047 -20.98358505 0 0 Z " fill="#E28623" transform="translate(164.8046875,81.8984375)"/>
<path d="M0 0 C2.76390737 2.40339772 3.04065919 3.16263678 4 7 C8.455 7.99 8.455 7.99 13 9 C13 9.66 13 10.32 13 11 C14.21171875 11.06058594 15.4234375 11.12117187 16.671875 11.18359375 C20.00520833 11.35026042 23.33854167 11.51692708 26.671875 11.68359375 C27.63053467 11.73 28.58919434 11.77640625 29.5769043 11.82421875 C32.13425496 11.95554266 34.68937193 12.10002241 37.24536133 12.25390625 C50.10185462 12.99985298 62.92747816 13.15472111 75.80395508 13.13037109 C79.22156076 13.12494593 82.63903856 13.1303876 86.05664062 13.13671875 C88.26041695 13.13605888 90.4641932 13.13477961 92.66796875 13.1328125 C93.67433884 13.13483673 94.68070892 13.13686096 95.71757507 13.13894653 C102.93011486 13.1151607 110.00147573 12.86383675 117 11 C116.34 11.33 115.68 11.66 115 12 C114.64484486 13.92644464 114.64484486 13.92644464 114.5625 16.1875 C114.03747218 21.70029209 112.7920417 25.34943527 108.625 29.1875 C86.94337464 42.03587059 48.27730643 34.88375945 24.75 31.625 C23.56422363 31.47260864 23.56422363 31.47260864 22.35449219 31.31713867 C16.60953828 30.4456499 11.25650845 28.87245827 7.51171875 24.10546875 C7.23972656 23.47253906 6.96773438 22.83960938 6.6875 22.1875 C6.38328125 21.4965625 6.0790625 20.805625 5.765625 20.09375 C5.05784808 18.15819678 4.49076595 16.17274841 3.9375 14.1875 C3.312728 11.01999955 3.312728 11.01999955 1.375 9.5625 C-1.02217274 6.83844006 -0.17185931 3.49447259 0 0 Z " fill="#DC8629" transform="translate(59,137)"/>
<path d="M0 0 C22.80127986 0.9874945 22.80127986 0.9874945 32 2 C32 2.66 32 3.32 32 4 C40.38080845 4.02332189 48.761603 4.04101513 57.14243603 4.05181217 C61.03531744 4.05699804 64.92817642 4.06401617 68.82104492 4.07543945 C72.58822661 4.08642287 76.35538691 4.09230905 80.12258339 4.09487724 C81.54925179 4.09670398 82.97591923 4.10027001 84.40257835 4.10573006 C93.31259812 4.13842794 102.12435396 3.83396641 111 3 C103.84765179 10.45426429 93.29829861 9.24430175 83.5151062 9.47747803 C80.78097502 9.53191657 78.04677981 9.57869306 75.3125 9.625 C73.43553026 9.66325588 71.55857665 9.7023118 69.68164062 9.7421875 C65.12122738 9.83735195 60.56073234 9.92167957 56 10 C85.14044406 12.26102764 85.14044406 12.26102764 112 5 C112.33 4.34 112.66 3.68 113 3 C116.28597022 5.78043634 117.84501759 7.40073467 118.9375 11.625 C119 15 119 15 117 18 C115.515 17.505 115.515 17.505 114 17 C112.6696875 17.7734375 112.6696875 17.7734375 111.3125 18.5625 C106.32734141 20.72587071 102.87261429 18.9830239 97.9453125 17.296875 C95.67884228 16.72741574 95.67884228 16.72741574 93 19 C89.71484375 19.16015625 89.71484375 19.16015625 85.9375 19.0625 C81.30438964 18.75088802 81.30438964 18.75088802 77 20 C72.63786024 20.26250045 68.34216194 20.28556637 64.0625 19.375 C61.69947417 18.69869896 61.69947417 18.69869896 59 21 C56.94921875 21.01171875 56.94921875 21.01171875 54.6875 20.6875 C53.89730469 20.58050781 53.10710937 20.47351563 52.29296875 20.36328125 C50.35821215 20.05675252 48.42838356 19.71935421 46.5 19.375 C45.675 19.25125 44.85 19.1275 44 19 C43.505 19.495 43.505 19.495 43 20 C38.5532436 20.41032302 34.37608258 20.28294402 30.125 18.875 C29.09375 18.58625 28.0625 18.2975 27 18 C26.01 18.66 25.02 19.32 24 20 C19.02487262 20.3158811 16.40425682 20.20212841 12 18 C9.99100513 18.27395385 7.99110401 18.61709538 6 19 C3.27773402 19.18791761 0.7407646 19.13703823 -2 19 C-4 17 -4 17 -4.1953125 15.0546875 C-4.13020833 13.03645833 -4.06510417 11.01822917 -4 9 C-3.34 9 -2.68 9 -2 9 C-1.67 8.34 -1.34 7.68 -1 7 C-1.66 7 -2.32 7 -3 7 C-2.67 5.68 -2.34 4.36 -2 3 C-1.34 3 -0.68 3 0 3 C0 2.01 0 1.02 0 0 Z " fill="#0F8506" transform="translate(64,119)"/>
<path d="M0 0 C2.68067887 0.2842625 5.33212255 0.62376502 8 1 C20.49638889 2.57362775 32.79264726 3.30233518 45.3828125 3.265625 C47.06045589 3.26697831 48.73809889 3.26892431 50.41574097 3.27142334 C53.88950424 3.27433526 57.36316312 3.27020067 60.83691406 3.26074219 C65.2668885 3.24925999 69.69662281 3.25598702 74.12658882 3.26788712 C77.57371817 3.27513707 81.0207911 3.27280494 84.46792221 3.26763153 C86.10164291 3.26630832 87.73536892 3.26789553 89.3690834 3.27259064 C97.52097628 3.2909161 105.05529108 3.0556621 113 1 C113.99 1.495 113.99 1.495 115 2 C115.3125 4.8125 115.3125 4.8125 115 8 C105.20198713 15.44975653 88.35899724 13.28277038 76.625 13.1875 C74.84179797 13.17928455 73.0585948 13.17131143 71.27539062 13.16357422 C24.69704525 12.89901508 24.69704525 12.89901508 13 9 C9.61459776 8.69301138 6.22864938 8.49095405 2.8359375 8.28125 C0 8 0 8 -1 7 C-1.125 4 -1.125 4 -1 1 C-0.67 0.67 -0.34 0.34 0 0 Z " fill="#E00B08" transform="translate(64,110)"/>
<path d="M0 0 C2.92031997 1.46015999 4.68720569 2.47393685 6.375 5.3125 C7.11914811 8.51233687 6.73870962 10.82354865 6 14 C4.68 14 3.36 14 2 14 C1.0925 14.53625 0.185 15.0725 -0.75 15.625 C-5.68721582 17.71382208 -9.18880158 15.96200707 -14.0546875 14.296875 C-16.32115772 13.72741574 -16.32115772 13.72741574 -19 16 C-22.28515625 16.16015625 -22.28515625 16.16015625 -26.0625 16.0625 C-30.69561036 15.75088802 -30.69561036 15.75088802 -35 17 C-39.36213976 17.26250045 -43.65783806 17.28556637 -47.9375 16.375 C-50.30052583 15.69869896 -50.30052583 15.69869896 -53 18 C-55.05078125 18.01171875 -55.05078125 18.01171875 -57.3125 17.6875 C-58.10269531 17.58050781 -58.89289063 17.47351563 -59.70703125 17.36328125 C-61.64178785 17.05675252 -63.57161644 16.71935421 -65.5 16.375 C-66.325 16.25125 -67.15 16.1275 -68 16 C-68.33 16.33 -68.66 16.66 -69 17 C-70.51928038 17.07179964 -72.04167482 17.08392007 -73.5625 17.0625 C-74.38878906 17.05347656 -75.21507813 17.04445312 -76.06640625 17.03515625 C-77.02353516 17.01775391 -77.02353516 17.01775391 -78 17 C-77.1328125 15.046875 -77.1328125 15.046875 -76 13 C-73.875 12.25 -73.875 12.25 -72 12 C-72 11.01 -72 10.02 -72 9 C-70.35 9 -68.7 9 -67 9 C-67 8.34 -67 7.68 -67 7 C-65.80737549 7.01571045 -64.61475098 7.0314209 -63.38598633 7.04760742 C-58.85139041 7.10297022 -54.3168224 7.13672585 -49.78198242 7.16479492 C-47.83987362 7.17964456 -45.89779683 7.19992952 -43.95581055 7.22631836 C-33.27694359 7.36752194 -22.85047614 7.11001609 -12.26171875 5.61328125 C-11.37353958 5.48793503 -10.48536041 5.36258881 -9.57026672 5.23344421 C-5.64259203 4.61957701 -3.37810442 4.25206961 0 2 C0 1.34 0 0.68 0 0 Z " fill="#0D9F07" transform="translate(176,122)"/>
<path d="M0 0 C0.99 0.66 1.98 1.32 3 2 C3.40625 4.27734375 3.40625 4.27734375 3.5 6.9375 C3.53913283 10.68322915 3.53913283 10.68322915 5.5390625 13.6640625 C6.02117187 14.10492188 6.50328125 14.54578125 7 15 C6.80495935 18.80329265 5.57213338 21.22209595 3 24 C2.34 24 1.68 24 1 24 C1 24.66 1 25.32 1 26 C1.66 26.33 2.32 26.66 3 27 C-10.86926417 32.0009366 -24.94903251 32.18196794 -39.5 32.1875 C-40.2037677 32.18849701 -40.9075354 32.18949402 -41.63262939 32.19052124 C-48.81384216 32.18937131 -55.89464446 32.14454825 -63 31 C-63 30.67 -63 30.34 -63 30 C-62.42752029 29.99413376 -61.85504059 29.98826752 -61.26521301 29.98222351 C-55.24526741 29.9177229 -49.22582878 29.83316623 -43.20629883 29.73754883 C-40.9671095 29.70452719 -38.72784149 29.67642637 -36.48852539 29.65356445 C-19.01716802 29.58131504 -19.01716802 29.58131504 -2 26 C-2.33 25.67 -2.66 25.34 -3 25 C-4.43415382 25.09023629 -5.8642313 25.2464312 -7.28955078 25.42919922 C-13.32697271 26.09583206 -19.29802043 26.14406362 -25.3671875 26.1328125 C-27.1011528 26.13424759 -27.1011528 26.13424759 -28.87014771 26.13571167 C-31.302267 26.13638863 -33.73438814 26.13456829 -36.16650391 26.13037109 C-39.85713836 26.12502587 -43.54765058 26.13032762 -47.23828125 26.13671875 C-49.6145836 26.13605769 -51.99088587 26.13477596 -54.3671875 26.1328125 C-55.45506561 26.13483673 -56.54294373 26.13686096 -57.66378784 26.13894653 C-64.8208452 26.11741834 -71.87751864 25.6991619 -79 25 C-79 24.67 -79 24.34 -79 24 C-77.84393753 24.00666183 -77.84393753 24.00666183 -76.66452026 24.01345825 C-69.34024906 24.05381812 -62.01603307 24.08412653 -54.691679 24.10362434 C-50.92770452 24.11398586 -47.16382322 24.12800231 -43.39990234 24.15087891 C-39.75590242 24.1728837 -36.11199116 24.1846257 -32.46792984 24.18975449 C-31.08952568 24.19340138 -29.71112542 24.20051978 -28.33275986 24.21146011 C-11.78824689 24.36660001 -11.78824689 24.36660001 4 20 C4 18.02 4 16.04 4 14 C2.948125 14.2165625 2.948125 14.2165625 1.875 14.4375 C-3.64496783 15.5174937 -8.80771118 16.12869063 -14.44799805 16.14526367 C-15.16937958 16.14862228 -15.89076111 16.1519809 -16.63400269 16.15544128 C-19.00992583 16.16490579 -21.38577794 16.1668932 -23.76171875 16.16796875 C-25.43398567 16.17118821 -27.10625232 16.17455278 -28.77851868 16.17805481 C-32.28798065 16.18403758 -35.79741805 16.18589596 -39.30688477 16.18530273 C-43.74856259 16.18520203 -48.19007725 16.19876261 -52.63171673 16.21607494 C-56.09213443 16.22734595 -59.55251483 16.22921726 -63.01294899 16.22869301 C-64.6467831 16.22985409 -66.28061881 16.23416702 -67.91443443 16.24202538 C-79.73129479 16.29347088 -91.27496004 15.45670562 -103 14 C-103.76853994 13.90478247 -104.53707989 13.80956493 -105.32890892 13.71146202 C-107.21948457 13.47600371 -109.10977383 13.23824763 -111 13 C-111 14.98 -111 16.96 -111 19 C-109.64455078 19.07347656 -109.64455078 19.07347656 -108.26171875 19.1484375 C-107.08222656 19.22320312 -105.90273437 19.29796875 -104.6875 19.375 C-103.51574219 19.44460937 -102.34398437 19.51421875 -101.13671875 19.5859375 C-98 20 -98 20 -95 22 C-100.28 21.67 -105.56 21.34 -111 21 C-110.67 22.65 -110.34 24.3 -110 26 C-111.32 26 -112.64 26 -114 26 C-114 26.66 -114 27.32 -114 28 C-113.34 28 -112.68 28 -112 28 C-112.33 29.32 -112.66 30.64 -113 32 C-113 31.34 -113 30.68 -113 30 C-113.66 30 -114.32 30 -115 30 C-114.855625 31.299375 -114.71125 32.59875 -114.5625 33.9375 C-114.48128906 34.66839844 -114.40007812 35.39929688 -114.31640625 36.15234375 C-114.18113386 38.01140229 -114.18113386 38.01140229 -113 39 C-109.05459568 39.13374252 -105.62760664 39.12069358 -101.75 38.375 C-98.66966833 37.95495477 -97.47994822 38.16300132 -95 40 C-94.67 40.99 -94.34 41.98 -94 43 C-94.99 43 -95.98 43 -97 43 C-97.33 44.32 -97.66 45.64 -98 47 C-104.01344909 48.45780584 -109.34409281 48.74225803 -115 46 C-115 43.69 -115 41.38 -115 39 C-115.99 38.67 -116.98 38.34 -118 38 C-119.48147714 33.69024832 -118.53766889 30.94062147 -116.984375 26.8671875 C-115.91605795 24.84077659 -114.69105409 23.52954892 -113 22 C-113.66 21.34 -114.32 20.68 -115 20 C-115.26991906 17.31160615 -115.08737357 14.70858064 -115 12 C-114.195625 11.87625 -113.39125 11.7525 -112.5625 11.625 C-111.716875 11.41875 -110.87125 11.2125 -110 11 C-109.67 10.34 -109.34 9.68 -109 9 C-107.865625 9.45375 -106.73125 9.9075 -105.5625 10.375 C-90.33497058 15.34847811 -73.424292 14.28394596 -57.625 14.1875 C-55.30420012 14.17997354 -52.9833993 14.17273214 -50.66259766 14.16577148 C-25.67751275 16.01846575 -25.67751275 16.01846575 -2 12 C-1.30772968 9.19019327 -1.30772968 9.19019327 -0.875 5.9375 C-0.70742187 4.83277344 -0.53984375 3.72804688 -0.3671875 2.58984375 C-0.18542969 1.30787109 -0.18542969 1.30787109 0 0 Z " fill="#381A07" transform="translate(175,98)"/>
<path d="M0 0 C3.90356395 2.9308726 7.64168141 5.88251983 10.1953125 10.1015625 C10.4453125 12.9140625 10.4453125 12.9140625 10.1953125 15.1015625 C8.1953125 12.1015625 8.1953125 12.1015625 8.1953125 10.1015625 C7.6178125 9.8540625 7.0403125 9.6065625 6.4453125 9.3515625 C3.8950128 7.93472933 2.17745549 6.22528713 0.1953125 4.1015625 C-0.4646875 4.7615625 -1.1246875 5.4215625 -1.8046875 6.1015625 C-2.7946875 4.6165625 -2.7946875 4.6165625 -3.8046875 3.1015625 C-3.3096875 2.6065625 -3.3096875 2.6065625 -2.8046875 2.1015625 C-3.7121875 1.8540625 -4.6196875 1.6065625 -5.5546875 1.3515625 C-8.97064207 0.03773382 -10.34627198 -1.27612762 -12.8046875 -3.8984375 C-16.15037135 -6.00273639 -19.14950128 -6.26875144 -23.0546875 -6.5234375 C-24.13234375 -6.59820312 -25.21 -6.67296875 -26.3203125 -6.75 C-27.14015625 -6.79898438 -27.96 -6.84796875 -28.8046875 -6.8984375 C-28.8046875 -6.2384375 -28.8046875 -5.5784375 -28.8046875 -4.8984375 C-26.1646875 -4.8984375 -23.5246875 -4.8984375 -20.8046875 -4.8984375 C-20.8046875 -3.9084375 -20.8046875 -2.9184375 -20.8046875 -1.8984375 C-23.4446875 -2.2284375 -26.0846875 -2.5584375 -28.8046875 -2.8984375 C-28.8046875 -2.2384375 -28.8046875 -1.5784375 -28.8046875 -0.8984375 C-34.5546875 0.1015625 -34.5546875 0.1015625 -36.8046875 0.1015625 C-37.0934375 -0.5378125 -37.3821875 -1.1771875 -37.6796875 -1.8359375 C-38.63292201 -4.05049829 -38.63292201 -4.05049829 -40.8046875 -4.8984375 C-40.8046875 -5.5584375 -40.8046875 -6.2184375 -40.8046875 -6.8984375 C-39.8146875 -6.8984375 -38.8246875 -6.8984375 -37.8046875 -6.8984375 C-37.8046875 -7.8884375 -37.8046875 -8.8784375 -37.8046875 -9.8984375 C-48.6059863 -10.31298628 -57.90404755 -10.24906768 -68.21484375 -6.67578125 C-70.8046875 -5.8984375 -70.8046875 -5.8984375 -72.8046875 -6.8984375 C-72.8046875 -6.2384375 -72.8046875 -5.5784375 -72.8046875 -4.8984375 C-73.41957031 -4.57230469 -74.03445312 -4.24617188 -74.66796875 -3.91015625 C-75.47621094 -3.47316406 -76.28445312 -3.03617188 -77.1171875 -2.5859375 C-77.91769531 -2.15667969 -78.71820313 -1.72742188 -79.54296875 -1.28515625 C-81.64900104 0.00610707 -83.09516821 1.34665775 -84.8046875 3.1015625 C-85.4234375 3.2459375 -86.0421875 3.3903125 -86.6796875 3.5390625 C-89.64708135 4.32454911 -91.45095764 6.18141446 -93.8046875 8.1015625 C-94.4646875 8.1015625 -95.1246875 8.1015625 -95.8046875 8.1015625 C-96.7946875 10.5765625 -96.7946875 10.5765625 -97.8046875 13.1015625 C-98.4646875 13.1015625 -99.1246875 13.1015625 -99.8046875 13.1015625 C-99.72089844 13.94460937 -99.63710937 14.78765625 -99.55078125 15.65625 C-99.44894531 16.75195312 -99.34710938 17.84765625 -99.2421875 18.9765625 C-99.13777344 20.06710938 -99.03335938 21.15765625 -98.92578125 22.28125 C-98.8046875 25.1015625 -98.8046875 25.1015625 -99.8046875 27.1015625 C-100.7946875 26.7715625 -101.7846875 26.4415625 -102.8046875 26.1015625 C-102.3096875 25.6065625 -102.3096875 25.6065625 -101.8046875 25.1015625 C-101.59862686 21.9007539 -101.48514892 18.70169154 -101.37890625 15.49609375 C-100.4746534 10.15054461 -98.10917269 7.18863349 -93.9921875 3.7578125 C-63.83225664 -16.64449367 -31.00044047 -20.98358505 0 0 Z " fill="#C6843A" transform="translate(164.8046875,81.8984375)"/>
<path d="M0 0 C0.3125 2.8125 0.3125 2.8125 0 6 C-5.65981323 10.82748776 -13.30785271 10.14063571 -20.3359375 10.09765625 C-21.21528961 10.0962413 -22.09464172 10.09482635 -23.00064087 10.09336853 C-25.79212942 10.08779877 -28.58353594 10.0752519 -31.375 10.0625 C-33.27473842 10.05748109 -35.1744781 10.05291887 -37.07421875 10.04882812 C-41.71617714 10.03783925 -46.35807469 10.02059557 -51 10 C-51 9.67 -51 9.34 -51 9 C-43.08 8.505 -43.08 8.505 -35 8 C-45.30802124 7.1753583 -55.53263281 6.89080999 -65.875 6.875 C-67.75687012 6.86823242 -67.75687012 6.86823242 -69.67675781 6.86132812 C-70.85334961 6.86326172 -72.02994141 6.86519531 -73.2421875 6.8671875 C-74.3029248 6.86831543 -75.36366211 6.86944336 -76.45654297 6.87060547 C-78.99255014 6.82911168 -78.99255014 6.82911168 -81 8 C-83.625 7.0625 -83.625 7.0625 -86 6 C-84.39118699 4.06756793 -83.48681693 3.09439948 -80.97846985 2.60800171 C-80.20480576 2.59991486 -79.43114166 2.591828 -78.6340332 2.58349609 C-77.74996796 2.56688431 -76.86590271 2.55027252 -75.95504761 2.53315735 C-74.51743576 2.52834602 -74.51743576 2.52834602 -73.05078125 2.5234375 C-71.55467819 2.50068001 -71.55467819 2.50068001 -70.02835083 2.47746277 C-67.89421741 2.44654215 -65.75998018 2.42221789 -63.6257019 2.40383911 C-60.31467931 2.37501897 -57.00434143 2.32887141 -53.69360352 2.27709961 C-49.38530069 2.2098508 -45.07698031 2.14720579 -40.76855469 2.08837891 C-33.98822509 1.99035104 -27.21374155 1.82366356 -20.4375 1.5625 C-19.08942261 1.52165283 -19.08942261 1.52165283 -17.71411133 1.47998047 C-12.12785726 1.25120322 -5.08552298 -2.03420919 0 0 Z " fill="#F0090A" transform="translate(179,112)"/>
<path d="M0 0 C4.19524765 0.26499955 8.39039 0.5315984 12.58544922 0.79956055 C14.00697202 0.89014936 15.42852081 0.98033153 16.85009766 1.07006836 C18.91576307 1.20053911 20.98132461 1.33256583 23.046875 1.46484375 C24.28276367 1.543396 25.51865234 1.62194824 26.79199219 1.70288086 C29.10788498 1.8555814 31.41589063 2.03834788 33.72718811 2.25146484 C41.01170165 2.91892011 48.21423957 3.14653885 55.52734375 3.1328125 C57.2535067 3.13424759 57.2535067 3.13424759 59.01454163 3.13571167 C61.43051204 3.13638739 63.84648433 3.13457587 66.26245117 3.13037109 C69.92435863 3.12501921 73.58614319 3.13033442 77.24804688 3.13671875 C79.61197943 3.13605777 81.97591192 3.13477618 84.33984375 3.1328125 C85.41628647 3.13483673 86.49272919 3.13686096 87.60179138 3.13894653 C95.10656021 3.11623087 102.52570951 2.66707992 110 2 C103.84672375 8.40793818 96.50226241 8.04807671 87.96896362 8.2598877 C83.29153285 8.33264085 78.61535792 8.3287586 73.9375 8.3125 C72.94153809 8.31167419 71.94557617 8.31084839 70.91943359 8.30999756 C55.74028058 8.28127207 40.63938083 7.71377673 25.5 6.625 C24.60159393 6.56196686 23.70318787 6.49893372 22.77755737 6.43399048 C20.23609578 6.25113782 17.69615017 6.05486523 15.15625 5.8515625 C14.04365562 5.76857658 14.04365562 5.76857658 12.90858459 5.68391418 C8.68976195 5.31967923 4.88500389 4.72625556 1 3 C0.67 2.01 0.34 1.02 0 0 Z " fill="#DAE20B" transform="translate(65,120)"/>
<path d="M0 0 C1.98 0 3.96 0 6 0 C6 0.33 6 0.66 6 1 C14.92016764 2.11405724 23.75638719 2.12867066 32.7265625 2.09765625 C34.32652746 2.09578751 35.926493 2.09436577 37.52645874 2.09336853 C41.70535913 2.08957921 45.88422389 2.07978021 50.06311035 2.06866455 C54.34024575 2.05837269 58.617387 2.05385437 62.89453125 2.04882812 C71.26303705 2.03815417 79.63151407 2.02112166 88 2 C87.01 2.33 86.02 2.66 85 3 C85 4.98 85 6.96 85 9 C84.67 9 84.34 9 84 9 C84 7.35 84 5.7 84 4 C82.74002197 4.32452148 81.48004395 4.64904297 80.18188477 4.98339844 C74.78645359 6.17582429 69.59760563 6.28818111 64.08984375 6.265625 C63.0561264 6.26830887 62.02240906 6.27099274 60.95736694 6.27375793 C57.61728253 6.27767862 54.27754888 6.26509387 50.9375 6.25 C49.80138275 6.2478952 48.6652655 6.24579041 47.49472046 6.24362183 C26.31055413 6.19748117 5.02243499 5.87729998 -16 3 C-16 2.67 -16 2.34 -16 2 C-10.72 2 -5.44 2 0 2 C0 1.34 0 0.68 0 0 Z " fill="#391F07" transform="translate(88,145)"/>
<path d="M0 0 C2.92031997 1.46015999 4.68720569 2.47393685 6.375 5.3125 C7.11914811 8.51233687 6.73870962 10.82354865 6 14 C4.68 14 3.36 14 2 14 C1.0925 14.53625 0.185 15.0725 -0.75 15.625 C-5.32489421 17.56053217 -7.36474571 16.622339 -12 15 C-12.66 14.34 -13.32 13.68 -14 13 C-13.34 13 -12.68 13 -12 13 C-12 12.34 -12 11.68 -12 11 C-15.96 10.67 -19.92 10.34 -24 10 C-24 9.01 -24 8.02 -24 7 C-23.06933716 6.87939209 -23.06933716 6.87939209 -22.11987305 6.75634766 C-19.30795146 6.38732078 -16.49778199 6.00630375 -13.6875 5.625 C-12.71103516 5.49867187 -11.73457031 5.37234375 -10.72851562 5.2421875 C-9.79072266 5.11328125 -8.85292969 4.984375 -7.88671875 4.8515625 C-7.02264404 4.73635254 -6.15856934 4.62114258 -5.26831055 4.50244141 C-2.73547804 4.08483053 -2.73547804 4.08483053 0 2 C0 1.34 0 0.68 0 0 Z " fill="#0E9A09" transform="translate(176,122)"/>
<path d="M0 0 C-0.33 1.32 -0.66 2.64 -1 4 C-0.01 4.495 -0.01 4.495 1 5 C-12.86926417 10.0009366 -26.94903251 10.18196794 -41.5 10.1875 C-42.2037677 10.18849701 -42.9075354 10.18949402 -43.63262939 10.19052124 C-50.81384216 10.18937131 -57.89464446 10.14454825 -65 9 C-65 8.67 -65 8.34 -65 8 C-64.42752029 7.99413376 -63.85504059 7.98826752 -63.26521301 7.98222351 C-57.24526741 7.9177229 -51.22582878 7.83316623 -45.20629883 7.73754883 C-42.9671095 7.70452719 -40.72784149 7.67642637 -38.48852539 7.65356445 C-21.01716802 7.58131504 -21.01716802 7.58131504 -4 4 C-4.495 3.505 -4.495 3.505 -5 3 C-6.43415382 3.09023629 -7.8642313 3.2464312 -9.28955078 3.42919922 C-15.32697271 4.09583206 -21.29802043 4.14406362 -27.3671875 4.1328125 C-29.1011528 4.13424759 -29.1011528 4.13424759 -30.87014771 4.13571167 C-33.302267 4.13638863 -35.73438814 4.13456829 -38.16650391 4.13037109 C-41.85713836 4.12502587 -45.54765058 4.13032762 -49.23828125 4.13671875 C-51.6145836 4.13605769 -53.99088587 4.13477596 -56.3671875 4.1328125 C-57.99900467 4.13584885 -57.99900467 4.13584885 -59.66378784 4.13894653 C-66.8208452 4.11741834 -73.87751864 3.6991619 -81 3 C-81 2.67 -81 2.34 -81 2 C-79.84393753 2.00666183 -79.84393753 2.00666183 -78.66452026 2.01345825 C-71.34024906 2.05381812 -64.01603307 2.08412653 -56.691679 2.10362434 C-52.92770452 2.11398586 -49.16382322 2.12800231 -45.39990234 2.15087891 C-41.75590242 2.1728837 -38.11199116 2.1846257 -34.46792984 2.18975449 C-33.08952568 2.19340138 -31.71112542 2.20051978 -30.33275986 2.21146011 C-22.00307952 2.27484129 -14.04138473 1.77398332 -5.81521606 0.43063354 C-3 0 -3 0 0 0 Z " fill="#1C2406" transform="translate(177,120)"/>
<path d="M0 0 C1.97068667 0.42698211 3.94148824 0.86917207 5.875 1.44140625 C9.89957059 2.49933565 13.58257982 2.58150572 17.4375 1 C17.953125 0.67 18.46875 0.34 19 0 C21 3 21 3 20.75 5.5 C20 8 20 8 18 11 C15.04935852 11.2208564 12.31631769 11.28060989 9.375 11.1875 C8.57320312 11.17396484 7.77140625 11.16042969 6.9453125 11.14648438 C4.96325622 11.11109051 2.98154449 11.05728234 1 11 C1.33 10.34 1.66 9.68 2 9 C0.68 8.01 -0.64 7.02 -2 6 C-1.34 6 -0.68 6 0 6 C-0.83333333 3.83333333 -0.83333333 3.83333333 -3 3 C-2 1.375 -2 1.375 0 0 Z " fill="#54300A" transform="translate(160,137)"/>
<path d="M0 0 C0.99 0 1.98 0 3 0 C3.33 0.66 3.66 1.32 4 2 C9.51285727 4.20514291 16.34288706 3.13142259 22 2 C22.495 3.485 22.495 3.485 23 5 C23.66 5.33 24.32 5.66 25 6 C21.37 6.33 17.74 6.66 14 7 C14 6.34 14 5.68 14 5 C13.175 5.515625 12.35 6.03125 11.5 6.5625 C7.13247022 8.35630687 4.50470665 7.90272891 0 7 C-1.155 6.814375 -2.31 6.62875 -3.5 6.4375 C-4.7375 6.2209375 -4.7375 6.2209375 -6 6 C-6 6.66 -6 7.32 -6 8 C-5.34 8.33 -4.68 8.66 -4 9 C-8.62 9.33 -13.24 9.66 -18 10 C-17.01 9.01 -16.02 8.02 -15 7 C-15 6.34 -15 5.68 -15 5 C-14.01 5 -13.02 5 -12 5 C-12.33 4.34 -12.66 3.68 -13 3 C-12.14535156 2.86722656 -11.29070312 2.73445312 -10.41015625 2.59765625 C-9.30542969 2.42105469 -8.20070313 2.24445313 -7.0625 2.0625 C-5.96035156 1.88847656 -4.85820313 1.71445313 -3.72265625 1.53515625 C-1.09573071 1.28154864 -1.09573071 1.28154864 0 0 Z " fill="#553012" transform="translate(108,137)"/>
<path d="M0 0 C-3.55463259 1.97380353 -7.22815078 3.06074923 -11.125 4.1875 C-12.36507812 4.55230469 -13.60515625 4.91710937 -14.8828125 5.29296875 C-18 6 -18 6 -20 5 C-20 5.66 -20 6.32 -20 7 C-20.61488281 7.32613281 -21.22976562 7.65226562 -21.86328125 7.98828125 C-22.67152344 8.42527344 -23.47976562 8.86226562 -24.3125 9.3125 C-25.11300781 9.74175781 -25.91351563 10.17101562 -26.73828125 10.61328125 C-28.84431354 11.90454457 -30.29048071 13.24509525 -32 15 C-32.61875 15.144375 -33.2375 15.28875 -33.875 15.4375 C-36.84239385 16.22298661 -38.64627014 18.07985196 -41 20 C-41.66 20 -42.32 20 -43 20 C-43.99 22.475 -43.99 22.475 -45 25 C-45.66 25 -46.32 25 -47 25 C-46.91621094 25.84304687 -46.83242187 26.68609375 -46.74609375 27.5546875 C-46.64425781 28.65039062 -46.54242188 29.74609375 -46.4375 30.875 C-46.33308594 31.96554688 -46.22867188 33.05609375 -46.12109375 34.1796875 C-46 37 -46 37 -47 39 C-47.99 38.67 -48.98 38.34 -50 38 C-49.505 37.505 -49.505 37.505 -49 37 C-48.79393936 33.7991914 -48.68046142 30.60012904 -48.57421875 27.39453125 C-47.6699659 22.04898211 -45.30448519 19.08707099 -41.1875 15.65625 C-28.4492387 7.03919089 -15.83123268 -0.89236593 0 0 Z " fill="#858780" transform="translate(112,70)"/>
<path d="M0 0 C2.76390737 2.40339772 3.04065919 3.16263678 4 7 C8.455 7.99 8.455 7.99 13 9 C13 9.66 13 10.32 13 11 C13.66 11.33 14.32 11.66 15 12 C14.01 12.33 13.02 12.66 12 13 C12 13.66 12 14.32 12 15 C11.34 15 10.68 15 10 15 C10 15.99 10 16.98 10 18 C10.66 18 11.32 18 12 18 C12 18.99 12 19.98 12 21 C11.34 21 10.68 21 10 21 C10.95314787 23.5402839 10.95314787 23.5402839 13 26 C15.66921593 27.04768041 18.15432483 27.48684546 21 28 C21 28.33 21 28.66 21 29 C13.80681309 29.60959211 13.80681309 29.60959211 10.1875 26.875 C7.11487986 22.83669925 5.32906976 19.21344472 4 14.3125 C3.32743782 11.03593631 3.32743782 11.03593631 1.375 9.5625 C-1.02217274 6.83844006 -0.17185931 3.49447259 0 0 Z " fill="#DA903F" transform="translate(59,137)"/>
<path d="M0 0 C3.63 0 7.26 0 11 0 C11 0.99 11 1.98 11 3 C9.68 3.33 8.36 3.66 7 4 C8.32 4.66 9.64 5.32 11 6 C6.73192332 8.43890096 3.89581103 9.22771214 -1 9 C-1.33 9.33 -1.66 9.66 -2 10 C-3.51928038 10.07179964 -5.04167482 10.08392007 -6.5625 10.0625 C-7.38878906 10.05347656 -8.21507813 10.04445312 -9.06640625 10.03515625 C-9.70449219 10.02355469 -10.34257813 10.01195312 -11 10 C-10.1328125 8.046875 -10.1328125 8.046875 -9 6 C-6.875 5.25 -6.875 5.25 -5 5 C-5 4.01 -5 3.02 -5 2 C-3.35 2 -1.7 2 0 2 C0 1.34 0 0.68 0 0 Z " fill="#179E11" transform="translate(109,129)"/>
<path d="M0 0 C1.485 0.99 1.485 0.99 3 2 C3.40625 4.27734375 3.40625 4.27734375 3.5 6.9375 C3.53960224 10.68164069 3.53960224 10.68164069 5.53515625 13.6640625 C6.01855469 14.10492188 6.50195312 14.54578125 7 15 C6.91225183 18.4221787 6.22726163 19.74519151 3.9375 22.3125 C3.298125 22.869375 2.65875 23.42625 2 24 C1.505 22.515 1.505 22.515 1 21 C1.99 20.67 2.98 20.34 4 20 C4 18.02 4 16.04 4 14 C2.948125 14.2165625 2.948125 14.2165625 1.875 14.4375 C0.451875 14.7159375 0.451875 14.7159375 -1 15 C-1.886875 15.17402344 -2.77375 15.34804687 -3.6875 15.52734375 C-7.43353988 16.06186123 -11.1007157 16.15001893 -14.875 16.125 C-15.57882813 16.12306641 -16.28265625 16.12113281 -17.0078125 16.11914062 C-21.75772193 16.07955805 -26.31909339 15.7801511 -31 15 C-31 14.67 -31 14.34 -31 14 C-30.19256348 13.97494385 -29.38512695 13.9498877 -28.55322266 13.92407227 C-24.91031083 13.80834513 -21.26767274 13.68551365 -17.625 13.5625 C-15.71847656 13.50352539 -15.71847656 13.50352539 -13.7734375 13.44335938 C-11.95585937 13.38051758 -11.95585937 13.38051758 -10.1015625 13.31640625 C-8.42054443 13.26141968 -8.42054443 13.26141968 -6.70556641 13.20532227 C-4.03287229 13.17403987 -4.03287229 13.17403987 -2 12 C-1.30772968 9.19019327 -1.30772968 9.19019327 -0.875 5.9375 C-0.70742187 4.83277344 -0.53984375 3.72804688 -0.3671875 2.58984375 C-0.24601562 1.73519531 -0.12484375 0.88054687 0 0 Z " fill="#692C12" transform="translate(175,98)"/>
<path d="M0 0 C14.55833931 -0.9392477 28.2298179 7.70553997 39 17 C42.91198044 21.00977995 42.91198044 21.00977995 43.25 24.8125 C43.1675 25.534375 43.085 26.25625 43 27 C41 24 41 24 41 22 C40.4225 21.7525 39.845 21.505 39.25 21.25 C36.6997003 19.83316683 34.98214299 18.12372463 33 16 C32.34 16.66 31.68 17.32 31 18 C30.34 17.01 29.68 16.02 29 15 C29.33 14.67 29.66 14.34 30 14 C29.0925 13.7525 28.185 13.505 27.25 13.25 C24 12 24 12 22.15625 10.0859375 C16.54424045 4.65692826 7.49501972 2.58548494 0 1 C0 0.67 0 0.34 0 0 Z " fill="#846E5B" transform="translate(132,70)"/>
<path d="M0 0 C2.70703125 0.56640625 2.70703125 0.56640625 5.8125 1.5625 C10.73147753 2.99182604 10.73147753 2.99182604 15.625 1.625 C16.40875 1.08875 17.1925 0.5525 18 0 C18.99 0.495 18.99 0.495 20 1 C18 4 18 4 15 5 C10.99783692 5.23542136 7.63659388 4.98084804 3.8125 3.875 C0.24587603 2.62449244 0.24587603 2.62449244 -1.82421875 3.94140625 C-4.83376895 5.40565779 -7.30089535 5.15629528 -10.625 5.0625 C-14.97294483 4.78150949 -14.97294483 4.78150949 -19 6 C-22.9431196 6.13143732 -26.42356695 6.09788486 -30.3125 5.4375 C-33.08967375 4.77180827 -33.08967375 4.77180827 -36 6 C-40.95337583 6.23967948 -44.48141403 6.25929298 -49 4 C-45.89615361 2.96538454 -44.74968079 3.05593912 -41.625 3.5625 C-37.76163474 4.07050745 -35.56484775 3.67757541 -32 2 C-31.01 2.33 -30.02 2.66 -29 3 C-27.3771583 3.09351969 -25.75052659 3.12994081 -24.125 3.125 C-22.86042969 3.12886719 -22.86042969 3.12886719 -21.5703125 3.1328125 C-19.00038412 3.06537915 -19.00038412 3.06537915 -16.53125 2.48828125 C-12.8435605 1.77692139 -9.26247896 2.03210689 -5.5234375 2.16015625 C-2.75092335 2.19569864 -2.75092335 2.19569864 0 0 Z " fill="#0B1D06" transform="translate(160,135)"/>
<path d="M0 0 C1.43088528 2.86177057 0.59991697 4.93375773 0 8 C1.12019531 8.04898438 2.24039063 8.09796875 3.39453125 8.1484375 C4.86721203 8.22347856 6.33986707 8.29902582 7.8125 8.375 C8.55048828 8.4059375 9.28847656 8.436875 10.04882812 8.46875 C13.81893115 8.67346148 15.79650741 8.86433827 19 11 C13.72 10.67 8.44 10.34 3 10 C3.33 11.65 3.66 13.3 4 15 C2.68 15 1.36 15 0 15 C0 15.66 0 16.32 0 17 C0.66 17 1.32 17 2 17 C1.67 18.32 1.34 19.64 1 21 C1 20.34 1 19.68 1 19 C0.34 19 -0.32 19 -1 19 C-1 21.64 -1 24.28 -1 27 C-1.99 27 -2.98 27 -4 27 C-5.48147714 22.69024832 -4.53766889 19.94062147 -2.984375 15.8671875 C-1.91605795 13.84077659 -0.69105409 12.52954892 1 11 C0.34 10.34 -0.32 9.68 -1 9 C-1.32752234 6.28545044 -1.1308425 3.74769241 -1 1 C-0.67 0.67 -0.34 0.34 0 0 Z " fill="#916B52" transform="translate(61,109)"/>
<path d="M0 0 C10.23 0.66 20.46 1.32 31 2 C31 2.33 31 2.66 31 3 C28.36 3 25.72 3 23 3 C23 3.66 23 4.32 23 5 C23.66 5.33 24.32 5.66 25 6 C22.12424132 5.88545196 19.24987888 5.7587153 16.375 5.625 C15.16263672 5.57859375 15.16263672 5.57859375 13.92578125 5.53125 C9.33469402 5.30729453 5.23595767 4.96430845 1 3 C0.67 2.01 0.34 1.02 0 0 Z " fill="#DBDF0C" transform="translate(65,120)"/>
<path d="M0 0 C0.33 0.66 0.66 1.32 1 2 C1.89460938 1.97679688 2.78921875 1.95359375 3.7109375 1.9296875 C11.08912758 1.81956526 17.84445343 2.15340734 25 4 C25 4.66 25 5.32 25 6 C22.17609703 7.41195148 19.84074305 6.70718908 16.796875 6.32421875 C11.54672854 5.71561239 6.27063874 5.38287484 1 5 C0.67 3.35 0.34 1.7 0 0 Z " fill="#F20908" transform="translate(63,113)"/>
<path d="M0 0 C0.99 0.33 1.98 0.66 3 1 C3.33 1.99 3.66 2.98 4 4 C4.66 3.01 5.32 2.02 6 1 C5.67447917 2.98567708 5.34895833 4.97135417 5.0234375 6.95703125 C4.80422152 9.31755824 4.80422152 9.31755824 7 12 C8.63495707 13.05104383 10.29883624 14.05988318 12 15 C9.30439815 16.34780093 8.257383 15.67336458 5.4375 14.75 C4.63183594 14.49734375 3.82617188 14.2446875 2.99609375 13.984375 C2.33738281 13.65953125 1.67867188 13.3346875 1 13 C-0.00496852 9.98509443 -0.10335303 7.95818308 -0.0625 4.8125 C-0.05347656 3.91144531 -0.04445313 3.01039062 -0.03515625 2.08203125 C-0.02355469 1.39496094 -0.01195313 0.70789063 0 0 Z " fill="#D8821A" transform="translate(65,95)"/>
<path d="M0 0 C0 0.99 0 1.98 0 3 C-0.66 3 -1.32 3 -2 3 C-2 3.99 -2 4.98 -2 6 C-1.34 6 -0.68 6 0 6 C0 6.66 0 7.32 0 8 C5.28 8 10.56 8 16 8 C16 8.33 16 8.66 16 9 C-5.53191489 9.38297872 -5.53191489 9.38297872 -16 7 C-16 6.67 -16 6.34 -16 6 C-14.80375 5.938125 -13.6075 5.87625 -12.375 5.8125 C-7.36831154 5.22661092 -4.25078295 0 0 0 Z " fill="#C97622" transform="translate(96,104)"/>
<path d="M0 0 C0.99 0.33 1.98 0.66 3 1 C4.3442623 6.37704918 4.3442623 6.37704918 2.6875 9.375 C1 11 1 11 -1 11 C-1 10.01 -1 9.02 -1 8 C-1.66 8 -2.32 8 -3 8 C-3.33 7.01 -3.66 6.02 -4 5 C-7.3 4.67 -10.6 4.34 -14 4 C-14 3.67 -14 3.34 -14 3 C-13.15695313 2.95101562 -12.31390625 2.90203125 -11.4453125 2.8515625 C-10.34960938 2.77679688 -9.25390625 2.70203125 -8.125 2.625 C-6.48917969 2.52058594 -6.48917969 2.52058594 -4.8203125 2.4140625 C-1.86953526 2.26746509 -1.86953526 2.26746509 0 0 Z " fill="#5F3713" transform="translate(177,137)"/>
<path d="M0 0 C0 0.99 0 1.98 0 3 C-2.58361518 3.05407567 -5.16609255 3.093707 -7.75 3.125 C-8.47960937 3.14175781 -9.20921875 3.15851563 -9.9609375 3.17578125 C-13.8044624 3.21072239 -16.74606772 3.17499684 -20 1 C-14.21634458 -2.85577028 -6.61018848 -0.96148196 0 0 Z " fill="#E7EE0A" transform="translate(136,125)"/>
<path d="M0 0 C-0.66 0 -1.32 0 -2 0 C-2.03738281 0.58007812 -2.07476562 1.16015625 -2.11328125 1.7578125 C-2.53503727 6.76926635 -3.12299261 10.73409249 -6 15 C-10.19376054 18.52657136 -13.57216103 19.56577288 -19 20 C-18.01 19.67 -17.02 19.34 -16 19 C-16 18.34 -16 17.68 -16 17 C-15.44570312 16.76925781 -14.89140625 16.53851563 -14.3203125 16.30078125 C-9.77791074 14.31436605 -9.77791074 14.31436605 -6.5 10.75 C-5.83512452 7.09318486 -5.87402528 3.71625432 -6 0 C-3 -1 -3 -1 0 0 Z " fill="#95887A" transform="translate(176,149)"/>
<path d="M0 0 C2.76390737 2.40339772 3.04065919 3.16263678 4 7 C8.455 7.99 8.455 7.99 13 9 C13 9.66 13 10.32 13 11 C11.02 11 9.04 11 7 11 C7 12.98 7 14.96 7 17 C6.34 16.01 5.68 15.02 5 14 C4.13375 13.113125 3.2675 12.22625 2.375 11.3125 C0.15467067 8.72754181 -0.33055904 7.02611902 -0.3125 3.625 C-0.209375 2.42875 -0.10625 1.2325 0 0 Z " fill="#695749" transform="translate(59,137)"/>
<path d="M0 0 C2.97 0.33 5.94 0.66 9 1 C8.34 2.32 7.68 3.64 7 5 C7.66 5.33 8.32 5.66 9 6 C4.38 6.33 -0.24 6.66 -5 7 C-4.01 6.01 -3.02 5.02 -2 4 C-2 3.34 -2 2.68 -2 2 C-1.01 2 -0.02 2 1 2 C0.67 1.34 0.34 0.68 0 0 Z " fill="#563411" transform="translate(95,140)"/>
<path d="M0 0 C0.33 0 0.66 0 1 0 C1.03738281 0.68707031 1.07476562 1.37414062 1.11328125 2.08203125 C1.17902344 2.98308594 1.24476563 3.88414063 1.3125 4.8125 C1.37050781 5.70582031 1.42851562 6.59914063 1.48828125 7.51953125 C2.07291736 10.35345438 2.91950116 11.0984688 5 13 C4.91225183 16.4221787 4.22726163 17.74519151 1.9375 20.3125 C1.298125 20.869375 0.65875 21.42625 0 22 C-0.33 21.01 -0.66 20.02 -1 19 C-0.01 18.67 0.98 18.34 2 18 C2 16.02 2 14.04 2 12 C0.68 11.67 -0.64 11.34 -2 11 C-1.855625 10.484375 -1.71125 9.96875 -1.5625 9.4375 C-0.84190099 6.31490429 -0.42733561 3.17449308 0 0 Z " fill="#8D8277" transform="translate(177,100)"/>
<path d="M0 0 C6.43255401 -0.12086218 12.61773055 0.17648136 19 1 C19 1.33 19 1.66 19 2 C16.36 2.33 13.72 2.66 11 3 C11 3.66 11 4.32 11 5 C6.48382401 5.07654536 2.40914783 5.10228696 -2 4 C-2 3.67 -2 3.34 -2 3 C-0.35 3 1.3 3 3 3 C3 2.34 3 1.68 3 1 C2.01 0.67 1.02 0.34 0 0 Z " fill="#D6985A" transform="translate(77,163)"/>
<path d="M0 0 C0.99 0.33 1.98 0.66 3 1 C6.99166543 1.13087428 10.34404448 1.13875982 14.25 0.3125 C17 0 17 0 19.375 1.4375 C19.91125 1.953125 20.4475 2.46875 21 3 C18.98177083 2.96744792 16.96354167 2.93489583 14.9453125 2.90234375 C12.91814596 2.87350758 12.91814596 2.87350758 11 4 C9.45976004 4.06950541 7.91665012 4.08452357 6.375 4.0625 C5.14910156 4.04896484 5.14910156 4.04896484 3.8984375 4.03515625 C2.95871094 4.01775391 2.95871094 4.01775391 2 4 C1.67 5.32 1.34 6.64 1 8 C0.67 5.36 0.34 2.72 0 0 Z " fill="#091506" transform="translate(59,136)"/>
<path d="M0 0 C0.66 0.33 1.32 0.66 2 1 C0.68 3.31 -0.64 5.62 -2 8 C-2.66 8 -3.32 8 -4 8 C-3.91621094 8.84304687 -3.83242187 9.68609375 -3.74609375 10.5546875 C-3.64425781 11.65039062 -3.54242188 12.74609375 -3.4375 13.875 C-3.33308594 14.96554688 -3.22867188 16.05609375 -3.12109375 17.1796875 C-3 20 -3 20 -4 22 C-4.99 21.67 -5.98 21.34 -7 21 C-6.67 20.67 -6.34 20.34 -6 20 C-5.86732644 17.9391374 -5.76910797 15.87601571 -5.6875 13.8125 C-5.27467163 7.64714513 -4.38219393 4.38219393 0 0 Z " fill="#9F9A96" transform="translate(69,87)"/>
<path d="M0 0 C2.31 0 4.62 0 7 0 C7 0.99 7 1.98 7 3 C6.01 3 5.02 3 4 3 C4 3.66 4 4.32 4 5 C4.99 5.33 5.98 5.66 7 6 C7 6.66 7 7.32 7 8 C5.02 8 3.04 8 1 8 C0.67 5.36 0.34 2.72 0 0 Z " fill="#D77E1E" transform="translate(120,72)"/>
<path d="M0 0 C7.94957992 -0.22428282 15.27111181 0.04596958 23 2 C23 2.33 23 2.66 23 3 C17.72 3 12.44 3 7 3 C7 2.34 7 1.68 7 1 C4.69 1 2.38 1 0 1 C0 0.67 0 0.34 0 0 Z " fill="#664D37" transform="translate(81,166)"/>
<path d="M0 0 C2.92031997 1.46015999 4.68720569 2.47393685 6.375 5.3125 C7.11914811 8.51233687 6.73870962 10.82354865 6 14 C5.01 14 4.02 14 3 14 C3.020625 12.7625 3.04125 11.525 3.0625 10.25 C3.06766681 7.3359175 2.93015558 4.79046673 2 2 C1.34 2 0.68 2 0 2 C0 1.34 0 0.68 0 0 Z " fill="#828980" transform="translate(176,122)"/>
<path d="M0 0 C0.33 0 0.66 0 1 0 C1.3125 2.8125 1.3125 2.8125 1 6 C-1.125 7.9375 -1.125 7.9375 -4 9 C-7.3125 8.6875 -7.3125 8.6875 -10 8 C-9.34 7.01 -8.68 6.02 -8 5 C-6.0546875 4.70703125 -6.0546875 4.70703125 -3.875 4.8125 C-2.59625 4.874375 -1.3175 4.93625 0 5 C0 3.35 0 1.7 0 0 Z " fill="#DF0C0D" transform="translate(178,112)"/>
<path d="M0 0 C0.66 0.66 1.32 1.32 2 2 C1.828125 4.27734375 1.828125 4.27734375 1.25 6.9375 C0.97929687 8.25041016 0.97929687 8.25041016 0.703125 9.58984375 C0 12 0 12 -2 15 C-3.32 14.67 -4.64 14.34 -6 14 C-5.01 13.67 -4.02 13.34 -3 13 C-3.33 11.02 -3.66 9.04 -4 7 C-3.67 7.99 -3.34 8.98 -3 10 C-2.34 10 -1.68 10 -1 10 C-1.020625 8.906875 -1.04125 7.81375 -1.0625 6.6875 C-1 3 -1 3 0 0 Z " fill="#D08F41" transform="translate(175,94)"/>
<path d="M0 0 C-3.45207476 1.96529009 -6.88476226 2.7746477 -10.75 3.625 C-11.92046875 3.88539062 -13.0909375 4.14578125 -14.296875 4.4140625 C-15.18890625 4.60742188 -16.0809375 4.80078125 -17 5 C-16.67 4.01 -16.34 3.02 -16 2 C-10.82393002 -0.52167512 -5.61441624 -0.19972232 0 0 Z " fill="#695951" transform="translate(112,70)"/>
<path d="M0 0 C1.75763672 0.45246094 1.75763672 0.45246094 3.55078125 0.9140625 C4.73027344 1.21054688 5.90976563 1.50703125 7.125 1.8125 C8.02863281 2.05226562 8.93226562 2.29203125 9.86328125 2.5390625 C9.86328125 2.8690625 9.86328125 3.1990625 9.86328125 3.5390625 C5.29921804 3.6164195 1.33641801 3.48790969 -3.13671875 2.5390625 C-3.46671875 2.8690625 -3.79671875 3.1990625 -4.13671875 3.5390625 C-5.82280841 3.61111761 -7.51172534 3.62292318 -9.19921875 3.6015625 C-10.11832031 3.59253906 -11.03742188 3.58351562 -11.984375 3.57421875 C-12.69464844 3.56261719 -13.40492187 3.55101562 -14.13671875 3.5390625 C-14.13671875 3.2090625 -14.13671875 2.8790625 -14.13671875 2.5390625 C-11.15820312 2.24609375 -11.15820312 2.24609375 -8.1796875 1.953125 C-4.59004757 1.22558803 -3.91423663 -0.57519293 0 0 Z " fill="#0A1A04" transform="translate(94.13671875,136.4609375)"/>
<path d="M0 0 C3 4 3 4 4.1875 6.125 C7.00715744 9.04188701 10.06476439 9.22585529 14 10 C14 10.33 14 10.66 14 11 C6.74132492 11.61514196 6.74132492 11.61514196 3.0625 8.5625 C2.381875 7.716875 1.70125 6.87125 1 6 C0.67 5.67 0.34 5.34 0 5 C-0.04063832 3.33382885 -0.042721 1.66611905 0 0 Z " fill="#5B504C" transform="translate(66,155)"/>
<path d="M0 0 C3.8496075 0.21997757 4.99046001 0.99067201 7.8125 3.75 C10.00549633 7.00816598 10.55784577 8.20664878 10 12 C8 9 8 9 8 7 C7.4225 6.773125 6.845 6.54625 6.25 6.3125 C3.4336339 4.66961977 1.91922886 2.60466773 0 0 Z " fill="#5A4A4C" transform="translate(165,85)"/>
<path d="M0 0 C0 0.99 0 1.98 0 3 C-0.886875 3.2475 -1.77375 3.495 -2.6875 3.75 C-6.10427135 5.03934768 -8.2797748 6.59980129 -11 9 C-11.66 8.67 -12.32 8.34 -13 8 C-9.85654708 3.34768968 -5.91663113 0 0 0 Z " fill="#6A5740" transform="translate(82,81)"/>
<path d="M0 0 C0 0.33 0 0.66 0 1 C-2.64 1 -5.28 1 -8 1 C-8 1.66 -8 2.32 -8 3 C-7.34 3.33 -6.68 3.66 -6 4 C-7.27875 4.061875 -8.5575 4.12375 -9.875 4.1875 C-10.59429687 4.22230469 -11.31359375 4.25710937 -12.0546875 4.29296875 C-12.69664063 4.19628906 -13.33859375 4.09960938 -14 4 C-14.66 3.01 -15.32 2.02 -16 1 C-10.63904667 -0.12862175 -5.44693314 -0.09688221 0 0 Z " fill="#C3CB09" transform="translate(96,122)"/>
<path d="M0 0 C0.99 0.33 1.98 0.66 3 1 C3 3.97 3 6.94 3 10 C2.01 10 1.02 10 0 10 C0 6.7 0 3.4 0 0 Z " fill="#B06616" transform="translate(65,95)"/>
<path d="M0 0 C2.64 0 5.28 0 8 0 C7.01 0.33 6.02 0.66 5 1 C5 2.98 5 4.96 5 7 C4.67 7 4.34 7 4 7 C4 5.35 4 3.7 4 2 C3.01 2.495 3.01 2.495 2 3 C0.45976004 3.06950541 -1.08334988 3.08452357 -2.625 3.0625 C-3.85089844 3.04896484 -3.85089844 3.04896484 -5.1015625 3.03515625 C-6.04128906 3.01775391 -6.04128906 3.01775391 -7 3 C-7 2.67 -7 2.34 -7 2 C-4.69 2 -2.38 2 0 2 C0 1.34 0 0.68 0 0 Z " fill="#21150E" transform="translate(168,147)"/>
<path d="M0 0 C0.99 0.33 1.98 0.66 3 1 C1.515 2.485 1.515 2.485 0 4 C0.66 4.33 1.32 4.66 2 5 C-2.29 4.67 -6.58 4.34 -11 4 C-11 3.67 -11 3.34 -11 3 C-10.28972656 2.86722656 -9.57945313 2.73445312 -8.84765625 2.59765625 C-7.92855469 2.42105469 -7.00945312 2.24445313 -6.0625 2.0625 C-4.68771484 1.80146484 -4.68771484 1.80146484 -3.28515625 1.53515625 C-1.04710156 1.22285012 -1.04710156 1.22285012 0 0 Z " fill="#31210E" transform="translate(108,137)"/>
<path d="M0 0 C0.66 0 1.32 0 2 0 C2 2.64 2 5.28 2 8 C1.01 8 0.02 8 -1 8 C-1.33 6.35 -1.66 4.7 -2 3 C-1.34 3 -0.68 3 0 3 C0 2.01 0 1.02 0 0 Z " fill="#477445" transform="translate(58,128)"/>
<path d="M0 0 C3.63 0 7.26 0 11 0 C10.01 0.33 9.02 0.66 8 1 C8 1.66 8 2.32 8 3 C2.25 3.125 2.25 3.125 0 2 C0 1.34 0 0.68 0 0 Z " fill="#EAF309" transform="translate(88,123)"/>
<path d="M0 0 C2.64 0.66 5.28 1.32 8 2 C6.4375 3.5625 6.4375 3.5625 4 5 C0.25 4.6875 0.25 4.6875 -3 4 C-2.01 2.68 -1.02 1.36 0 0 Z " fill="#552F11" transform="translate(160,137)"/>
<path d="M0 0 C0 1.65 0 3.3 0 5 C-2.97 4.505 -2.97 4.505 -6 4 C-6 3.67 -6 3.34 -6 3 C-4.35 3 -2.7 3 -1 3 C-1.98267859 1.79438816 -1.98267859 1.79438816 -3.84765625 1.90234375 C-5.8984375 1.93489583 -7.94921875 1.96744792 -10 2 C-10 1.67 -10 1.34 -10 1 C-3.375 -1.125 -3.375 -1.125 0 0 Z " fill="#F00310" transform="translate(178,112)"/>
<path d="M0 0 C0.99 0.33 1.98 0.66 3 1 C3.33 2.98 3.66 4.96 4 7 C3.01 7.495 3.01 7.495 2 8 C1.71125 7.195625 1.4225 6.39125 1.125 5.5625 C0.26737432 2.8673532 0.26737432 2.8673532 -2 2 C-1.34 1.34 -0.68 0.68 0 0 Z " fill="#887E77" transform="translate(177,137)"/>
<path d="M0 0 C1.62490954 -0.02698189 3.24994633 -0.04638757 4.875 -0.0625 C5.77992187 -0.07410156 6.68484375 -0.08570313 7.6171875 -0.09765625 C10 0 10 0 12 1 C12 1.66 12 2.32 12 3 C7.45194365 3.17835515 4.1205746 2.99785435 0 1 C0 0.67 0 0.34 0 0 Z " fill="#1B9618" transform="translate(102,135)"/>
<path d="M0 0 C0.70125 0.309375 1.4025 0.61875 2.125 0.9375 C5.08936657 2.03302678 7.87698108 2.56422992 11 3 C11 3.33 11 3.66 11 4 C8.03 4 5.06 4 2 4 C1.67 5.32 1.34 6.64 1 8 C0.67 5.36 0.34 2.72 0 0 Z " fill="#291808" transform="translate(59,136)"/>
<path d="M0 0 C0.33 0 0.66 0 1 0 C1.19491452 1.45736087 1.38069358 2.91594593 1.5625 4.375 C1.66691406 5.18710938 1.77132812 5.99921875 1.87890625 6.8359375 C2 9 2 9 1 11 C0.01 10.67 -0.98 10.34 -2 10 C-1.67 9.67 -1.34 9.34 -1 9 C-1 7.865625 -1 6.73125 -1 5.5625 C-1 2 -1 2 0 0 Z " fill="#8E8F8D" transform="translate(64,98)"/>
<path d="M0 0 C2.31 0 4.62 0 7 0 C7.33 1.32 7.66 2.64 8 4 C5.36 4 2.72 4 0 4 C1.32 3.34 2.64 2.68 4 2 C2.68 1.34 1.36 0.68 0 0 Z " fill="#D2DB05" transform="translate(152,124)"/>
<path d="M0 0 C0.8125 1.6875 0.8125 1.6875 1 4 C-1.4375 6.75 -1.4375 6.75 -4 9 C-4.33 8.01 -4.66 7.02 -5 6 C-4.01 5.67 -3.02 5.34 -2 5 C-1.33820153 3.01954441 -1.33820153 3.01954441 -1 1 C-0.67 0.67 -0.34 0.34 0 0 Z " fill="#9C8682" transform="translate(181,113)"/>
<path d="M0 0 C0.99 0 1.98 0 3 0 C3 1.32 3 2.64 3 4 C2.34 4 1.68 4 1 4 C1 5.32 1 6.64 1 8 C0.34 8 -0.32 8 -1 8 C-0.67 5.36 -0.34 2.72 0 0 Z " fill="#BA7324" transform="translate(108,96)"/>
<path d="M0 0 C0.99 0.33 1.98 0.66 3 1 C2.67 2.65 2.34 4.3 2 6 C0.68 5.67 -0.64 5.34 -2 5 C-1.34 3.35 -0.68 1.7 0 0 Z " fill="#C17325" transform="translate(156,89)"/>
<path d="M0 0 C0.33 0.66 0.66 1.32 1 2 C1.66 2 2.32 2 3 2 C2.6875 3.9375 2.6875 3.9375 2 6 C1.01 6.33 0.02 6.66 -1 7 C-1.33 5.02 -1.66 3.04 -2 1 C-1.34 0.67 -0.68 0.34 0 0 Z " fill="#E58A30" transform="translate(69,93)"/>
<path d="M0 0 C1.2065625 0.0309375 1.2065625 0.0309375 2.4375 0.0625 C0.125 2.5625 0.125 2.5625 -2.5625 5.0625 C-3.5525 5.0625 -4.5425 5.0625 -5.5625 5.0625 C-3.15007962 0.07683121 -3.15007962 0.07683121 0 0 Z " fill="#EB851A" transform="translate(157.5625,86.9375)"/>
<path d="M0 0 C0.66 0.33 1.32 0.66 2 1 C1.67 2.65 1.34 4.3 1 6 C0.34 6 -0.32 6 -1 6 C-1 5.01 -1 4.02 -1 3 C-1.66 2.67 -2.32 2.34 -3 2 C-2.01 1.34 -1.02 0.68 0 0 Z " fill="#66574A" transform="translate(177,142)"/>
</svg>
