<svg version="1.1" id="Layer_1" xmlns="http://www.w3.org/2000/svg" xmlns:xlink="http://www.w3.org/1999/xlink" x="0px" y="0px"
	 width="100%" viewBox="0 0 512 512" enable-background="new 0 0 512 512" xml:space="preserve">
<path fill="#030202" opacity="1.000000" stroke="none" 
	d="
M513.000000,455.000000 
	C513.000000,474.319855 513.000000,493.639679 513.000000,512.954224 
	C342.333313,512.948853 171.666656,512.948853 1.000000,512.948853 
	C1.000000,493.910950 1.000000,474.924133 1.360576,455.358704 
	C5.563725,442.296814 13.557274,434.166962 26.393661,430.922028 
	C28.174191,430.471924 30.344883,429.477203 31.260460,428.046814 
	C35.764355,421.010651 42.545410,417.251526 49.853764,414.412567 
	C49.853764,375.215179 49.853764,336.259583 49.853764,297.525391 
	C38.874069,293.934052 30.346945,287.381866 27.429939,276.361023 
	C25.290190,268.276825 25.483917,259.524719 25.088890,251.049271 
	C24.877373,246.511124 24.695753,241.626678 26.072584,237.412018 
	C42.346390,187.595947 58.970413,137.894379 75.313477,88.100708 
	C76.673759,83.956215 78.536041,82.818611 82.839211,82.871788 
	C104.655159,83.141403 126.476295,82.971413 148.295441,83.026421 
	C151.079132,83.033432 152.352875,82.618675 153.239090,79.246208 
	C154.976883,72.632980 157.582413,66.148041 160.608078,59.993065 
	C167.584793,45.800682 177.359787,33.598957 189.798859,23.888884 
	C200.079910,15.863392 211.367798,9.328808 224.190002,5.960941 
	C230.461670,4.313634 236.730103,2.654033 243.000000,0.999999 
	C252.020889,1.000000 261.041779,1.000000 270.680603,1.393061 
	C278.539154,3.352777 286.116455,4.040317 292.954346,6.658800 
	C310.174622,13.253085 325.450867,22.793085 337.806030,37.048141 
	C348.608246,49.511398 356.194794,63.478970 360.755035,79.076576 
	C361.808868,82.681068 363.123260,83.031708 366.026855,83.024857 
	C388.342651,82.972260 410.658966,83.054306 432.974152,82.925148 
	C435.901123,82.908211 437.139221,83.727928 438.088043,86.581589 
	C452.294495,129.309372 466.500549,172.038574 481.043549,214.652496 
	C486.397491,230.340454 490.333954,245.977448 489.164062,262.843506 
	C487.991425,279.749268 480.929474,291.874512 464.098236,297.599213 
	C464.098236,336.518494 464.098236,375.469849 464.098236,414.211090 
	C467.234283,415.757050 470.739044,416.653992 473.103241,418.804657 
	C480.449585,425.487671 488.006653,431.412811 497.439545,435.243896 
	C505.885925,438.674255 509.402130,447.135437 513.000000,455.000000 
M199.142502,480.870941 
	C199.142502,485.947510 199.142502,491.024078 199.142502,496.082947 
	C238.068893,496.082947 276.239563,496.082947 314.689087,496.082947 
	C314.689087,490.495697 314.689087,485.218048 314.852997,479.024048 
	C314.852997,429.933624 314.852997,380.843170 314.852997,331.642639 
	C276.017090,331.642639 237.676270,331.642639 199.121323,331.642639 
	C199.121323,356.534607 199.096649,381.015167 199.128220,405.495667 
	C199.160233,430.311096 199.247849,455.126495 199.142502,480.870941 
M347.889587,479.002472 
	C347.905823,473.671021 347.807617,468.336334 347.959869,463.008759 
	C348.405304,447.422150 358.461334,435.125702 373.492889,431.244202 
	C375.485016,430.729797 377.613312,429.291077 378.874603,427.659119 
	C383.397614,421.806580 388.817383,416.800201 396.033997,415.526337 
	C404.214569,414.082367 411.753204,411.639221 419.288788,408.148712 
	C428.366425,403.944061 437.784576,405.887390 446.779358,410.013641 
	C446.779358,372.144073 446.779358,334.697723 446.779358,298.229645 
	C440.798615,294.531769 435.393951,291.190094 429.768524,287.711884 
	C423.348328,294.326569 415.274719,298.102081 405.601593,298.150665 
	C395.737030,298.200226 387.705078,293.900177 380.840759,287.259338 
	C366.460693,301.810425 345.403625,301.654358 331.532990,287.443726 
	C310.864532,302.127441 303.462006,302.135071 281.393829,287.431427 
	C274.732880,294.275146 266.699677,298.104431 257.004669,298.145691 
	C247.187225,298.187500 239.146912,294.046356 232.359619,287.339752 
	C218.904541,300.317871 199.421707,303.171631 182.359375,287.331329 
	C175.732666,294.239777 167.696381,298.068939 158.005417,298.143463 
	C148.166962,298.219116 140.106674,294.082855 133.299255,287.377716 
	C118.163513,301.537140 98.831726,302.003937 84.023537,287.954346 
	C78.357300,291.358185 72.875916,294.650970 67.323685,297.986328 
	C67.323685,334.955200 67.323685,372.324219 67.323685,410.007416 
	C80.492409,403.974152 92.747070,404.617676 104.354530,413.090118 
	C105.415611,413.864624 107.151459,413.935669 108.578506,413.952637 
	C119.296730,414.080292 127.682686,418.658112 134.515945,426.776428 
	C136.257751,428.845795 138.848984,430.773834 141.406815,431.487244 
	C155.382080,435.384979 165.402252,447.462494 165.986740,461.941284 
	C166.228424,467.928528 166.173965,473.927734 166.081390,480.851654 
	C166.081390,485.914886 166.081390,490.978149 166.081390,496.109100 
	C171.930649,496.109100 177.257050,496.109100 182.580200,496.109100 
	C182.580200,490.415253 182.580200,485.147705 182.748016,478.972443 
	C182.748016,424.384979 182.748016,369.797516 182.748016,315.189453 
	C232.549942,315.189453 281.774170,315.189453 331.229889,315.189453 
	C331.229889,317.306915 331.229858,319.120178 331.229858,320.933472 
	C331.229889,365.257935 331.219879,409.582367 331.238556,453.906830 
	C331.242188,462.566528 331.357178,471.226196 331.218140,480.814514 
	C331.218140,485.876740 331.218140,490.938965 331.218140,496.130554 
	C337.068390,496.130554 342.390472,496.130554 347.746063,496.130554 
	C347.746063,490.457184 347.746063,485.188354 347.889587,479.002472 
M347.746887,104.779213 
	C345.390564,50.424160 296.057129,8.219536 239.397568,19.440065 
	C205.018173,26.248363 181.412994,47.435089 170.699585,80.834686 
	C160.098511,113.884102 167.564636,143.965118 190.553802,169.924133 
	C195.166733,175.132996 200.947464,179.307678 206.189743,183.959198 
	C207.380798,167.440369 207.294189,151.818405 207.453262,136.198929 
	C207.485397,133.043533 206.533401,131.648193 203.512390,130.472595 
	C190.815094,125.531601 182.683502,113.696098 182.880173,100.280296 
	C183.091751,85.847115 187.842438,72.731812 196.808533,61.536499 
	C209.135208,46.145054 225.016815,47.250576 236.293442,63.619160 
	C242.151718,72.122719 245.869095,81.471924 247.829559,91.518784 
	C250.212128,103.728851 247.903854,114.908157 238.555115,123.557976 
	C234.507187,127.303253 229.258789,129.751068 224.108902,133.076752 
	C224.108902,152.414871 224.108902,172.556122 224.108902,192.877625 
	C246.090988,201.215454 267.944000,201.247330 289.872467,192.865784 
	C289.872467,172.498138 289.872467,152.364578 289.872467,132.208389 
	C289.189636,131.845917 288.631104,131.470352 288.018555,131.235870 
	C273.125519,125.534904 265.354279,114.472862 265.186310,98.389336 
	C265.067963,87.058212 265.162994,75.724876 265.162781,64.392525 
	C265.162750,62.628464 265.162811,60.864407 265.162811,59.226196 
	C271.093842,59.226196 276.340210,59.226196 281.864227,59.226196 
	C281.864227,61.207806 281.863220,62.849621 281.864380,64.491440 
	C281.872772,76.323624 281.784637,88.156982 281.927765,99.987541 
	C282.009857,106.769890 284.946167,111.312225 290.176636,113.251640 
	C290.176636,95.200081 290.176636,77.248215 290.176636,59.130638 
	C295.686218,59.130638 300.922913,59.130638 306.677795,59.130638 
	C306.677795,77.252365 306.677795,95.135696 306.677795,113.774330 
	C313.206116,109.874664 314.810028,104.392952 314.858887,98.229462 
	C314.946136,87.231102 314.883667,76.231567 314.883789,65.232521 
	C314.883789,63.150433 314.883789,61.068340 314.883789,59.170738 
	C320.735901,59.170738 325.836853,59.170738 331.162476,59.170738 
	C331.162476,73.259758 331.448303,87.070999 331.083893,100.865051 
	C330.701843,115.327858 323.147491,125.243416 309.942963,130.700089 
	C307.205902,131.831146 306.555206,133.131500 306.572601,135.786896 
	C306.669922,150.618301 306.609375,165.450714 306.643127,180.282684 
	C306.645477,181.309174 306.975006,182.334900 307.257843,183.970810 
	C334.358734,164.351273 347.805878,138.513077 347.746887,104.779213 
M114.366692,139.906525 
	C107.586655,170.495926 100.806618,201.085327 93.983543,231.868896 
	C105.010979,231.868896 115.441605,231.868896 126.179802,231.868896 
	C133.502274,187.941818 140.790588,144.219604 148.101990,100.358986 
	C139.439911,100.358986 131.355988,100.358986 123.187363,100.358986 
	C120.295097,113.458344 117.463020,126.285118 114.366692,139.906525 
M407.485901,232.130707 
	C411.573090,232.130707 415.660278,232.130707 420.110229,232.130707 
	C410.224304,187.698975 400.493408,143.964111 390.809723,100.441437 
	C382.225067,100.441437 374.197510,100.441437 365.897095,100.441437 
	C373.263519,144.571884 380.558868,188.276474 387.879211,232.130768 
	C394.526978,232.130768 400.508545,232.130768 407.485901,232.130707 
M476.499603,463.370148 
	C482.950439,463.370148 489.401276,463.370148 496.728333,463.370148 
	C495.834290,460.352295 495.515472,457.862762 494.407623,455.796204 
	C490.784058,449.036743 484.822357,446.448242 477.342682,447.099396 
	C474.558624,447.341766 472.569763,447.335327 471.325043,443.805878 
	C467.298035,432.387207 461.162659,429.306641 448.894379,431.452362 
	C447.605713,431.677765 445.675232,431.042969 444.750122,430.107452 
	C434.411530,419.652771 426.844666,419.706879 415.937988,430.344452 
	C415.077148,431.184082 413.219055,431.850739 412.169739,431.515839 
	C401.946381,428.253052 392.446899,433.080994 388.958069,444.426880 
	C388.596008,445.604401 386.581848,446.695282 385.151520,447.018890 
	C383.258087,447.447235 381.170837,446.915802 379.190857,447.082336 
	C370.737061,447.793457 364.269043,455.219513 365.270752,463.370300 
	C401.982178,463.370300 438.740967,463.370300 476.499603,463.370148 
M32.902740,447.025696 
	C23.191221,448.550995 17.434784,454.861023 18.369215,463.108917 
	C61.911587,463.108917 105.468903,463.108917 149.019150,463.108917 
	C149.263870,453.363861 141.969528,446.640808 131.480545,447.134491 
	C127.525879,447.320618 125.378151,446.686920 123.906395,442.367432 
	C120.606834,432.683350 113.182373,428.957275 102.993095,431.368958 
	C100.231796,432.022491 98.834244,431.396454 97.095024,429.423279 
	C88.798882,420.011047 78.376579,419.962616 70.127121,429.362946 
	C68.196724,431.562683 66.607819,431.928833 63.766827,431.265625 
	C54.454716,429.091919 47.055843,432.356323 43.899963,440.941772 
	C41.888119,446.414948 39.043961,448.113281 32.902740,447.025696 
M91.216682,167.763443 
	C96.220581,145.339340 101.224480,122.915245 106.326447,100.051666 
	C101.822899,100.051666 98.146683,100.335083 94.534882,99.974045 
	C90.723381,99.593040 89.115532,100.998100 87.916267,104.637047 
	C74.762741,144.548706 61.412189,184.395416 48.126759,224.263626 
	C47.313110,226.705338 46.597370,229.179657 45.746052,231.929596 
	C56.496758,231.929596 66.607933,231.929596 77.036179,231.929596 
	C81.730125,210.733109 86.396614,189.660568 91.216682,167.763443 
M413.638794,100.051697 
	C411.832428,100.051697 410.026062,100.051697 407.679779,100.051697 
	C417.532990,144.396973 427.272797,188.231720 436.952362,231.795319 
	C447.746002,231.795319 457.792725,231.795319 468.176178,231.795319 
	C467.604645,229.821152 467.203125,228.230560 466.686096,226.678421 
	C453.672638,187.609192 440.650452,148.542877 427.621155,109.478943 
	C424.475220,100.046944 424.461090,100.051651 413.638794,100.051697 
M20.533442,496.376251 
	C63.450642,496.376251 106.367844,496.376251 149.465057,496.376251 
	C149.465057,490.590332 149.465057,485.512451 149.465057,480.284424 
	C105.451027,480.284424 61.717236,480.284424 17.642250,480.284424 
	C17.642250,485.037811 17.549282,489.514740 17.727438,493.980835 
	C17.759727,494.790253 18.903170,495.555328 20.533442,496.376251 
M459.500000,479.997253 
	C427.900726,479.997253 396.301453,479.997253 364.534149,479.997253 
	C364.534149,485.654755 364.534149,490.735657 364.534149,496.039917 
	C408.518555,496.039917 452.223450,496.039917 496.127869,496.039917 
	C496.127869,490.620544 496.127869,485.545868 496.127869,479.997253 
	C484.085510,479.997253 472.292755,479.997253 459.500000,479.997253 
M153.372314,168.861603 
	C149.917282,189.796127 146.462234,210.730667 142.963898,231.927612 
	C153.939896,231.927612 164.385117,231.927612 175.253998,231.927612 
	C176.493637,221.058014 177.116425,210.223770 179.108261,199.647369 
	C181.089386,189.127884 180.241913,180.052597 171.476700,172.879089 
	C170.854370,172.369797 170.434357,171.580078 170.009872,170.867386 
	C165.673233,163.586578 161.355164,156.294708 156.810806,148.633163 
	C155.711914,155.258102 154.653458,161.639297 153.372314,168.861603 
M335.941132,180.808243 
	C335.225586,182.869705 333.791016,184.977798 333.921112,186.984421 
	C334.436829,194.938141 335.398773,202.864944 336.278748,210.792450 
	C337.059967,217.830521 337.951630,224.856354 338.795593,231.896454 
	C349.789215,231.896454 360.212341,231.896454 371.081207,231.896454 
	C366.420349,203.980820 361.810242,176.369019 357.200134,148.757233 
	C351.383179,160.370529 344.999146,170.989792 335.941132,180.808243 
M228.754929,110.111755 
	C229.843018,106.053680 232.007751,101.941826 231.808258,97.948051 
	C231.301102,87.793793 227.206070,78.669296 220.945374,70.677589 
	C217.305328,66.031105 214.221161,66.075432 210.478592,70.718346 
	C204.524063,78.105286 201.120453,86.678085 199.634186,96.016373 
	C198.286621,104.483177 201.550613,111.430206 208.403351,114.841209 
	C215.119080,118.184013 222.150375,116.706375 228.754929,110.111755 
M247.790527,278.895416 
	C258.048309,285.668488 270.240753,279.584717 272.281860,270.762848 
	C273.887634,263.822571 273.553772,256.433533 274.079590,249.269714 
	C262.136322,249.269714 251.416092,249.269714 240.571365,249.269714 
	C240.571365,255.155426 240.419846,260.631012 240.615494,266.094147 
	C240.798172,271.195160 243.089005,275.353851 247.790527,278.895416 
M93.722908,248.898209 
	C93.123276,250.033844 92.061310,251.147690 92.006561,252.309006 
	C91.803581,256.614624 91.841362,260.938324 91.955788,265.250824 
	C92.194832,274.259491 98.540123,280.993011 107.389534,281.765869 
	C115.445862,282.469513 123.464455,276.310150 124.515800,267.660858 
	C125.245178,261.660278 124.656097,255.499466 124.656097,248.865250 
	C114.504463,248.865250 104.594994,248.865250 93.722908,248.898209 
M413.457794,248.859039 
	C405.413300,248.859039 397.368774,248.859039 389.129486,248.859039 
	C389.129486,255.155762 388.836517,260.633881 389.196808,266.068726 
	C389.764191,274.627258 396.167816,280.961700 404.493408,281.756317 
	C411.967438,282.469635 420.253357,277.031494 421.407349,269.297485 
	C422.387604,262.727661 421.609619,255.895462 421.609619,248.858902 
	C419.045990,248.858902 416.743713,248.858902 413.457794,248.859039 
M155.504822,248.857574 
	C150.907440,248.857574 146.310074,248.857574 141.249390,248.857574 
	C141.249390,253.985260 141.194260,258.448242 141.276138,262.908722 
	C141.309540,264.728027 141.527924,266.562378 141.855026,268.354675 
	C143.217606,275.820709 149.503067,281.302124 157.162689,281.794373 
	C164.198975,282.246582 172.022797,277.374115 173.326004,270.254883 
	C174.582275,263.391998 174.169113,256.223541 174.477615,249.447998 
	C173.112839,249.089859 172.798355,248.937164 172.482819,248.934967 
	C167.156250,248.898041 161.829544,248.879822 155.504822,248.857574 
M339.730072,259.478455 
	C339.773315,261.974945 339.681854,264.482452 339.884521,266.965942 
	C340.542908,275.032074 347.255432,281.383240 355.439850,281.808929 
	C362.890320,282.196442 370.778595,276.622681 371.887146,269.222473 
	C372.859772,262.729675 372.682648,256.064636 373.026093,249.222198 
	C361.508820,249.222198 350.812256,249.222198 339.729736,249.222198 
	C339.729736,252.554947 339.729736,255.526718 339.730072,259.478455 
M318.797119,276.238739 
	C325.686676,267.915771 322.248718,258.286377 322.907288,249.147781 
	C311.645691,249.147781 301.062164,249.147781 290.010864,249.147781 
	C290.010864,254.207504 290.053741,258.994690 290.000916,263.780762 
	C289.920105,271.099304 292.828003,276.784607 299.464081,280.021515 
	C306.375610,283.392731 312.704895,281.870544 318.797119,276.238739 
M209.102661,281.690582 
	C217.000992,280.357635 222.429550,275.882996 223.556915,267.977600 
	C224.430939,261.848602 223.731522,255.495255 223.731522,249.243439 
	C212.657486,249.243439 201.965561,249.243439 190.977905,249.243439 
	C190.977905,254.258987 190.946289,258.894714 190.984177,263.529877 
	C191.075989,274.759399 196.944275,280.930908 209.102661,281.690582 
M75.189583,255.556076 
	C75.189583,253.459702 75.189583,251.363312 75.189583,249.125732 
	C63.911480,249.125732 53.331871,249.125732 42.170162,249.125732 
	C42.170162,253.158417 42.118736,256.944794 42.189186,260.728912 
	C42.232403,263.050201 42.243633,265.406799 42.647289,267.680450 
	C44.169319,276.253510 51.408100,282.280121 59.402435,281.806091 
	C68.473541,281.268219 74.909081,274.445343 75.165024,265.033478 
	C75.241974,262.204163 75.185265,259.371216 75.189583,255.556076 
M438.810394,254.582718 
	C438.829651,258.413177 438.721893,262.249359 438.894073,266.072968 
	C439.276306,274.560455 445.533051,280.923248 454.144012,281.758545 
	C461.874634,282.508453 469.948639,276.767395 471.042694,268.601776 
	C471.887970,262.292603 471.211365,255.779572 471.211365,249.107727 
	C460.636414,249.107727 450.055298,249.107727 439.133240,249.107727 
	C439.017273,250.722961 438.913818,252.164001 438.810394,254.582718 
M295.664307,232.132553 
	C304.395966,232.132553 313.127625,232.132553 322.125793,232.132553 
	C320.730743,219.983658 319.422882,208.594360 318.177856,197.752213 
	C308.742950,202.026794 299.849243,206.008987 291.016663,210.122437 
	C290.004944,210.593613 288.602051,211.816681 288.623016,212.660294 
	C288.781921,219.066315 289.250519,225.464630 289.638123,232.132584 
	C291.746887,232.132584 293.226746,232.132584 295.664307,232.132553 
M225.028320,220.606323 
	C225.150208,218.282822 225.442123,215.950348 225.320023,213.639740 
	C225.261734,212.536758 224.700836,210.869537 223.885406,210.487747 
	C214.642395,206.159973 205.305923,202.031769 195.757050,197.743530 
	C194.530121,208.775711 193.256226,220.230057 191.972168,231.775803 
	C203.058929,231.775803 213.583130,231.775803 224.501114,231.775803 
	C224.678329,228.145737 224.839310,224.848083 225.028320,220.606323 
M269.417053,214.902817 
	C260.349640,214.902817 251.282227,214.902817 242.030518,214.902817 
	C241.650116,220.816208 241.302200,226.224335 240.940628,231.845062 
	C251.861465,231.845062 262.241699,231.845062 273.080048,231.845062 
	C272.716278,226.422836 272.417114,221.309540 271.961670,216.210159 
	C271.917175,215.711929 270.910065,215.299652 269.417053,214.902817 
z"/>
<path fill="#FFFFFF" opacity="1.000000" stroke="none" 
	d="
M242.531342,0.999999 
	C236.730103,2.654033 230.461670,4.313634 224.190002,5.960941 
	C211.367798,9.328808 200.079910,15.863392 189.798859,23.888884 
	C177.359787,33.598957 167.584793,45.800682 160.608078,59.993065 
	C157.582413,66.148041 154.976883,72.632980 153.239090,79.246208 
	C152.352875,82.618675 151.079132,83.033432 148.295441,83.026421 
	C126.476295,82.971413 104.655159,83.141403 82.839211,82.871788 
	C78.536041,82.818611 76.673759,83.956215 75.313477,88.100708 
	C58.970413,137.894379 42.346390,187.595947 26.072584,237.412018 
	C24.695753,241.626678 24.877373,246.511124 25.088890,251.049271 
	C25.483917,259.524719 25.290190,268.276825 27.429939,276.361023 
	C30.346945,287.381866 38.874069,293.934052 49.853764,297.525391 
	C49.853764,336.259583 49.853764,375.215179 49.853764,414.412567 
	C42.545410,417.251526 35.764355,421.010651 31.260460,428.046814 
	C30.344883,429.477203 28.174191,430.471924 26.393661,430.922028 
	C13.557274,434.166962 5.563725,442.296814 1.360576,454.890015 
	C1.000000,303.761841 1.000000,152.523682 1.000000,1.000000 
	C81.354004,1.000000 161.708344,1.000000 242.531342,0.999999 
z"/>
<path fill="#FFFFFF" opacity="1.000000" stroke="none" 
	d="
M513.000000,454.531342 
	C509.402130,447.135437 505.885925,438.674255 497.439545,435.243896 
	C488.006653,431.412811 480.449585,425.487671 473.103241,418.804657 
	C470.739044,416.653992 467.234283,415.757050 464.098236,414.211090 
	C464.098236,375.469849 464.098236,336.518494 464.098236,297.599213 
	C480.929474,291.874512 487.991425,279.749268 489.164062,262.843506 
	C490.333954,245.977448 486.397491,230.340454 481.043549,214.652496 
	C466.500549,172.038574 452.294495,129.309372 438.088043,86.581589 
	C437.139221,83.727928 435.901123,82.908211 432.974152,82.925148 
	C410.658966,83.054306 388.342651,82.972260 366.026855,83.024857 
	C363.123260,83.031708 361.808868,82.681068 360.755035,79.076576 
	C356.194794,63.478970 348.608246,49.511398 337.806030,37.048141 
	C325.450867,22.793085 310.174622,13.253085 292.954346,6.658800 
	C286.116455,4.040317 278.539154,3.352777 271.149231,1.393061 
	C351.615936,1.000000 432.231903,1.000000 513.000000,1.000000 
	C513.000000,152.020859 513.000000,303.041779 513.000000,454.531342 
z"/>
<path fill="#EBEBEB" opacity="1.000000" stroke="none" 
	d="
M166.254196,479.921478 
	C166.173965,473.927734 166.228424,467.928528 165.986740,461.941284 
	C165.402252,447.462494 155.382080,435.384979 141.406815,431.487244 
	C138.848984,430.773834 136.257751,428.845795 134.515945,426.776428 
	C127.682686,418.658112 119.296730,414.080292 108.578506,413.952637 
	C107.151459,413.935669 105.415611,413.864624 104.354530,413.090118 
	C92.747070,404.617676 80.492409,403.974152 67.323685,410.007416 
	C67.323685,372.324219 67.323685,334.955200 67.323685,297.986328 
	C72.875916,294.650970 78.357300,291.358185 84.023537,287.954346 
	C98.831726,302.003937 118.163513,301.537140 133.299255,287.377716 
	C140.106674,294.082855 148.166962,298.219116 158.005417,298.143463 
	C167.696381,298.068939 175.732666,294.239777 182.359375,287.331329 
	C199.421707,303.171631 218.904541,300.317871 232.359619,287.339752 
	C239.146912,294.046356 247.187225,298.187500 257.004669,298.145691 
	C266.699677,298.104431 274.732880,294.275146 281.393829,287.431427 
	C303.462006,302.135071 310.864532,302.127441 331.532990,287.443726 
	C345.403625,301.654358 366.460693,301.810425 380.840759,287.259338 
	C387.705078,293.900177 395.737030,298.200226 405.601593,298.150665 
	C415.274719,298.102081 423.348328,294.326569 429.768524,287.711884 
	C435.393951,291.190094 440.798615,294.531769 446.779358,298.229645 
	C446.779358,334.697723 446.779358,372.144073 446.779358,410.013641 
	C437.784576,405.887390 428.366425,403.944061 419.288788,408.148712 
	C411.753204,411.639221 404.214569,414.082367 396.033997,415.526337 
	C388.817383,416.800201 383.397614,421.806580 378.874603,427.659119 
	C377.613312,429.291077 375.485016,430.729797 373.492889,431.244202 
	C358.461334,435.125702 348.405304,447.422150 347.959869,463.008759 
	C347.807617,468.336334 347.905823,473.671021 347.367615,479.483612 
	C341.704041,479.938477 336.562408,479.912170 331.420807,479.885864 
	C331.357178,471.226196 331.242188,462.566528 331.238556,453.906830 
	C331.219879,409.582367 331.229889,365.257935 331.229858,320.933472 
	C331.229858,319.120178 331.229889,317.306915 331.229889,315.189453 
	C281.774170,315.189453 232.549942,315.189453 182.748016,315.189453 
	C182.748016,369.797516 182.748016,424.384979 182.224655,479.455017 
	C176.552261,479.932220 171.403229,479.926849 166.254196,479.921478 
M402.499664,389.074158 
	C408.936096,389.074158 415.372559,389.074158 421.821716,389.074158 
	C421.821716,366.801819 421.821716,345.074005 421.821716,323.309998 
	C399.819702,323.309998 378.091553,323.309998 356.323944,323.309998 
	C356.323944,345.321747 356.323944,367.052490 356.323944,389.074158 
	C371.565704,389.074158 386.532776,389.074158 402.499664,389.074158 
M91.905609,341.500580 
	C91.905609,357.262970 91.905609,373.025360 91.905609,388.794678 
	C114.185890,388.794678 135.913956,388.794678 157.667389,388.794678 
	C157.667389,366.786957 157.667389,345.059937 157.667389,323.308289 
	C135.647659,323.308289 113.914253,323.308289 91.905609,323.308289 
	C91.905609,329.223083 91.905609,334.862122 91.905609,341.500580 
z"/>
<path fill="#EABD8C" opacity="1.000000" stroke="none" 
	d="
M199.311111,479.941895 
	C199.247849,455.126495 199.160233,430.311096 199.128220,405.495667 
	C199.096649,381.015167 199.121323,356.534607 199.121323,331.642639 
	C237.676270,331.642639 276.017090,331.642639 314.852997,331.642639 
	C314.852997,380.843170 314.852997,429.933624 314.322815,479.491028 
	C275.632141,479.952606 237.471619,479.947235 199.311111,479.941895 
M215.806686,412.515076 
	C215.806686,415.607269 215.806686,418.699463 215.806686,421.706055 
	C221.628647,421.706055 226.829773,421.706055 231.834595,421.706055 
	C231.834595,416.229370 231.834595,411.144897 231.834595,405.974915 
	C226.454788,405.974915 221.381226,405.974915 215.806671,405.974915 
	C215.806671,407.977783 215.806671,409.756348 215.806686,412.515076 
z"/>
<path fill="#FDE8A6" opacity="1.000000" stroke="none" 
	d="
M347.771545,105.239548 
	C347.805878,138.513077 334.358734,164.351273 307.257843,183.970810 
	C306.975006,182.334900 306.645477,181.309174 306.643127,180.282684 
	C306.609375,165.450714 306.669922,150.618301 306.572601,135.786896 
	C306.555206,133.131500 307.205902,131.831146 309.942963,130.700089 
	C323.147491,125.243416 330.701843,115.327858 331.083893,100.865051 
	C331.448303,87.070999 331.162476,73.259758 331.162476,59.170738 
	C325.836853,59.170738 320.735901,59.170738 314.883789,59.170738 
	C314.883789,61.068340 314.883789,63.150433 314.883789,65.232521 
	C314.883667,76.231567 314.946136,87.231102 314.858887,98.229462 
	C314.810028,104.392952 313.206116,109.874664 306.677795,113.774330 
	C306.677795,95.135696 306.677795,77.252365 306.677795,59.130638 
	C300.922913,59.130638 295.686218,59.130638 290.176636,59.130638 
	C290.176636,77.248215 290.176636,95.200081 290.176636,113.251640 
	C284.946167,111.312225 282.009857,106.769890 281.927765,99.987541 
	C281.784637,88.156982 281.872772,76.323624 281.864380,64.491440 
	C281.863220,62.849621 281.864227,61.207806 281.864227,59.226196 
	C276.340210,59.226196 271.093842,59.226196 265.162811,59.226196 
	C265.162811,60.864407 265.162750,62.628464 265.162781,64.392525 
	C265.162994,75.724876 265.067963,87.058212 265.186310,98.389336 
	C265.354279,114.472862 273.125519,125.534904 288.018555,131.235870 
	C288.631104,131.470352 289.189636,131.845917 289.872467,132.208389 
	C289.872467,152.364578 289.872467,172.498138 289.872467,192.865784 
	C267.944000,201.247330 246.090988,201.215454 224.108902,192.877625 
	C224.108902,172.556122 224.108902,152.414871 224.108902,133.076752 
	C229.258789,129.751068 234.507187,127.303253 238.555115,123.557976 
	C247.903854,114.908157 250.212128,103.728851 247.829559,91.518784 
	C245.869095,81.471924 242.151718,72.122719 236.293442,63.619160 
	C225.016815,47.250576 209.135208,46.145054 196.808533,61.536499 
	C187.842438,72.731812 183.091751,85.847115 182.880173,100.280296 
	C182.683502,113.696098 190.815094,125.531601 203.512390,130.472595 
	C206.533401,131.648193 207.485397,133.043533 207.453262,136.198929 
	C207.294189,151.818405 207.380798,167.440369 206.189743,183.959198 
	C200.947464,179.307678 195.166733,175.132996 190.553802,169.924133 
	C167.564636,143.965118 160.098511,113.884102 170.699585,80.834686 
	C181.412994,47.435089 205.018173,26.248363 239.397568,19.440065 
	C296.057129,8.219536 345.390564,50.424160 347.771545,105.239548 
z"/>
<path fill="#F85867" opacity="1.000000" stroke="none" 
	d="
M114.498817,139.509216 
	C117.463020,126.285118 120.295097,113.458344 123.187363,100.358986 
	C131.355988,100.358986 139.439911,100.358986 148.101990,100.358986 
	C140.790588,144.219604 133.502274,187.941818 126.179802,231.868896 
	C115.441605,231.868896 105.010979,231.868896 93.983543,231.868896 
	C100.806618,201.085327 107.586655,170.495926 114.498817,139.509216 
z"/>
<path fill="#F85867" opacity="1.000000" stroke="none" 
	d="
M406.988007,232.130737 
	C400.508545,232.130768 394.526978,232.130768 387.879211,232.130768 
	C380.558868,188.276474 373.263519,144.571884 365.897095,100.441437 
	C374.197510,100.441437 382.225067,100.441437 390.809723,100.441437 
	C400.493408,143.964111 410.224304,187.698975 420.110229,232.130707 
	C415.660278,232.130707 411.573090,232.130707 406.988007,232.130737 
z"/>
<path fill="#91DFBF" opacity="1.000000" stroke="none" 
	d="
M475.999695,463.370239 
	C438.740967,463.370300 401.982178,463.370300 365.270752,463.370300 
	C364.269043,455.219513 370.737061,447.793457 379.190857,447.082336 
	C381.170837,446.915802 383.258087,447.447235 385.151520,447.018890 
	C386.581848,446.695282 388.596008,445.604401 388.958069,444.426880 
	C392.446899,433.080994 401.946381,428.253052 412.169739,431.515839 
	C413.219055,431.850739 415.077148,431.184082 415.937988,430.344452 
	C426.844666,419.706879 434.411530,419.652771 444.750122,430.107452 
	C445.675232,431.042969 447.605713,431.677765 448.894379,431.452362 
	C461.162659,429.306641 467.298035,432.387207 471.325043,443.805878 
	C472.569763,447.335327 474.558624,447.341766 477.342682,447.099396 
	C484.822357,446.448242 490.784058,449.036743 494.407623,455.796204 
	C495.515472,457.862762 495.834290,460.352295 496.728333,463.370148 
	C489.401276,463.370148 482.950439,463.370148 475.999695,463.370239 
z"/>
<path fill="#91DFBF" opacity="1.000000" stroke="none" 
	d="
M33.344845,447.014343 
	C39.043961,448.113281 41.888119,446.414948 43.899963,440.941772 
	C47.055843,432.356323 54.454716,429.091919 63.766827,431.265625 
	C66.607819,431.928833 68.196724,431.562683 70.127121,429.362946 
	C78.376579,419.962616 88.798882,420.011047 97.095024,429.423279 
	C98.834244,431.396454 100.231796,432.022491 102.993095,431.368958 
	C113.182373,428.957275 120.606834,432.683350 123.906395,442.367432 
	C125.378151,446.686920 127.525879,447.320618 131.480545,447.134491 
	C141.969528,446.640808 149.263870,453.363861 149.019150,463.108917 
	C105.468903,463.108917 61.911587,463.108917 18.369215,463.108917 
	C17.434784,454.861023 23.191221,448.550995 33.344845,447.014343 
z"/>
<path fill="#F85867" opacity="1.000000" stroke="none" 
	d="
M91.139893,168.175751 
	C86.396614,189.660568 81.730125,210.733109 77.036179,231.929596 
	C66.607933,231.929596 56.496758,231.929596 45.746052,231.929596 
	C46.597370,229.179657 47.313110,226.705338 48.126759,224.263626 
	C61.412189,184.395416 74.762741,144.548706 87.916267,104.637047 
	C89.115532,100.998100 90.723381,99.593040 94.534882,99.974045 
	C98.146683,100.335083 101.822899,100.051666 106.326447,100.051666 
	C101.224480,122.915245 96.220581,145.339340 91.139893,168.175751 
z"/>
<path fill="#F85867" opacity="1.000000" stroke="none" 
	d="
M414.110413,100.051697 
	C424.461090,100.051651 424.475220,100.046944 427.621155,109.478943 
	C440.650452,148.542877 453.672638,187.609192 466.686096,226.678421 
	C467.203125,228.230560 467.604645,229.821152 468.176178,231.795319 
	C457.792725,231.795319 447.746002,231.795319 436.952362,231.795319 
	C427.272797,188.231720 417.532990,144.396973 407.679779,100.051697 
	C410.026062,100.051697 411.832428,100.051697 414.110413,100.051697 
z"/>
<path fill="#D2A06C" opacity="1.000000" stroke="none" 
	d="
M20.033541,496.358582 
	C18.903170,495.555328 17.759727,494.790253 17.727438,493.980835 
	C17.549282,489.514740 17.642250,485.037811 17.642250,480.284424 
	C61.717236,480.284424 105.451027,480.284424 149.465057,480.284424 
	C149.465057,485.512451 149.465057,490.590332 149.465057,496.376251 
	C106.367844,496.376251 63.450642,496.376251 20.033541,496.358582 
z"/>
<path fill="#D2A06C" opacity="1.000000" stroke="none" 
	d="
M460.000000,479.997253 
	C472.292755,479.997253 484.085510,479.997253 496.127869,479.997253 
	C496.127869,485.545868 496.127869,490.620544 496.127869,496.039917 
	C452.223450,496.039917 408.518555,496.039917 364.534149,496.039917 
	C364.534149,490.735657 364.534149,485.654755 364.534149,479.997253 
	C396.301453,479.997253 427.900726,479.997253 460.000000,479.997253 
z"/>
<path fill="#F85867" opacity="1.000000" stroke="none" 
	d="
M153.483658,168.441040 
	C154.653458,161.639297 155.711914,155.258102 156.810806,148.633163 
	C161.355164,156.294708 165.673233,163.586578 170.009872,170.867386 
	C170.434357,171.580078 170.854370,172.369797 171.476700,172.879089 
	C180.241913,180.052597 181.089386,189.127884 179.108261,199.647369 
	C177.116425,210.223770 176.493637,221.058014 175.253998,231.927612 
	C164.385117,231.927612 153.939896,231.927612 142.963898,231.927612 
	C146.462234,210.730667 149.917282,189.796127 153.483658,168.441040 
z"/>
<path fill="#F85867" opacity="1.000000" stroke="none" 
	d="
M336.184998,180.511017 
	C344.999146,170.989792 351.383179,160.370529 357.200134,148.757233 
	C361.810242,176.369019 366.420349,203.980820 371.081207,231.896454 
	C360.212341,231.896454 349.789215,231.896454 338.795593,231.896454 
	C337.951630,224.856354 337.059967,217.830521 336.278748,210.792450 
	C335.398773,202.864944 334.436829,194.938141 333.921112,186.984421 
	C333.791016,184.977798 335.225586,182.869705 336.184998,180.511017 
z"/>
<path fill="#CD9D6C" opacity="1.000000" stroke="none" 
	d="
M199.226807,480.406433 
	C237.471619,479.947235 275.632141,479.952606 314.240845,479.949188 
	C314.689087,485.218048 314.689087,490.495697 314.689087,496.082947 
	C276.239563,496.082947 238.068893,496.082947 199.142502,496.082947 
	C199.142502,491.024078 199.142502,485.947510 199.226807,480.406433 
z"/>
<path fill="#FCE7A5" opacity="1.000000" stroke="none" 
	d="
M228.508850,110.389740 
	C222.150375,116.706375 215.119080,118.184013 208.403351,114.841209 
	C201.550613,111.430206 198.286621,104.483177 199.634186,96.016373 
	C201.120453,86.678085 204.524063,78.105286 210.478592,70.718346 
	C214.221161,66.075432 217.305328,66.031105 220.945374,70.677589 
	C227.206070,78.669296 231.301102,87.793793 231.808258,97.948051 
	C232.007751,101.941826 229.843018,106.053680 228.508850,110.389740 
z"/>
<path fill="#C82B58" opacity="1.000000" stroke="none" 
	d="
M247.485657,278.682556 
	C243.089005,275.353851 240.798172,271.195160 240.615494,266.094147 
	C240.419846,260.631012 240.571365,255.155426 240.571365,249.269714 
	C251.416092,249.269714 262.136322,249.269714 274.079590,249.269714 
	C273.553772,256.433533 273.887634,263.822571 272.281860,270.762848 
	C270.240753,279.584717 258.048309,285.668488 247.485657,278.682556 
z"/>
<path fill="#CB2C59" opacity="1.000000" stroke="none" 
	d="
M94.204224,248.881729 
	C104.594994,248.865250 114.504463,248.865250 124.656097,248.865250 
	C124.656097,255.499466 125.245178,261.660278 124.515800,267.660858 
	C123.464455,276.310150 115.445862,282.469513 107.389534,281.765869 
	C98.540123,280.993011 92.194832,274.259491 91.955788,265.250824 
	C91.841362,260.938324 91.803581,256.614624 92.006561,252.309006 
	C92.061310,251.147690 93.123276,250.033844 94.204224,248.881729 
z"/>
<path fill="#CB2C59" opacity="1.000000" stroke="none" 
	d="
M413.949615,248.858978 
	C416.743713,248.858902 419.045990,248.858902 421.609619,248.858902 
	C421.609619,255.895462 422.387604,262.727661 421.407349,269.297485 
	C420.253357,277.031494 411.967438,282.469635 404.493408,281.756317 
	C396.167816,280.961700 389.764191,274.627258 389.196808,266.068726 
	C388.836517,260.633881 389.129486,255.155762 389.129486,248.859039 
	C397.368774,248.859039 405.413300,248.859039 413.949615,248.858978 
z"/>
<path fill="#CA2B59" opacity="1.000000" stroke="none" 
	d="
M156.003845,248.857513 
	C161.829544,248.879822 167.156250,248.898041 172.482819,248.934967 
	C172.798355,248.937164 173.112839,249.089859 174.477615,249.447998 
	C174.169113,256.223541 174.582275,263.391998 173.326004,270.254883 
	C172.022797,277.374115 164.198975,282.246582 157.162689,281.794373 
	C149.503067,281.302124 143.217606,275.820709 141.855026,268.354675 
	C141.527924,266.562378 141.309540,264.728027 141.276138,262.908722 
	C141.194260,258.448242 141.249390,253.985260 141.249390,248.857574 
	C146.310074,248.857574 150.907440,248.857574 156.003845,248.857513 
z"/>
<path fill="#CA2B59" opacity="1.000000" stroke="none" 
	d="
M339.729919,258.988464 
	C339.729736,255.526718 339.729736,252.554947 339.729736,249.222198 
	C350.812256,249.222198 361.508820,249.222198 373.026093,249.222198 
	C372.682648,256.064636 372.859772,262.729675 371.887146,269.222473 
	C370.778595,276.622681 362.890320,282.196442 355.439850,281.808929 
	C347.255432,281.383240 340.542908,275.032074 339.884521,266.965942 
	C339.681854,264.482452 339.773315,261.974945 339.729919,258.988464 
z"/>
<path fill="#CB2C59" opacity="1.000000" stroke="none" 
	d="
M318.543060,276.506744 
	C312.704895,281.870544 306.375610,283.392731 299.464081,280.021515 
	C292.828003,276.784607 289.920105,271.099304 290.000916,263.780762 
	C290.053741,258.994690 290.010864,254.207504 290.010864,249.147781 
	C301.062164,249.147781 311.645691,249.147781 322.907288,249.147781 
	C322.248718,258.286377 325.686676,267.915771 318.543060,276.506744 
z"/>
<path fill="#CB2C59" opacity="1.000000" stroke="none" 
	d="
M208.700836,281.738739 
	C196.944275,280.930908 191.075989,274.759399 190.984177,263.529877 
	C190.946289,258.894714 190.977905,254.258987 190.977905,249.243439 
	C201.965561,249.243439 212.657486,249.243439 223.731522,249.243439 
	C223.731522,255.495255 224.430939,261.848602 223.556915,267.977600 
	C222.429550,275.882996 217.000992,280.357635 208.700836,281.738739 
z"/>
<path fill="#CB2C59" opacity="1.000000" stroke="none" 
	d="
M75.189682,256.048004 
	C75.185265,259.371216 75.241974,262.204163 75.165024,265.033478 
	C74.909081,274.445343 68.473541,281.268219 59.402435,281.806091 
	C51.408100,282.280121 44.169319,276.253510 42.647289,267.680450 
	C42.243633,265.406799 42.232403,263.050201 42.189186,260.728912 
	C42.118736,256.944794 42.170162,253.158417 42.170162,249.125732 
	C53.331871,249.125732 63.911480,249.125732 75.189583,249.125732 
	C75.189583,251.363312 75.189583,253.459702 75.189682,256.048004 
z"/>
<path fill="#CB2C59" opacity="1.000000" stroke="none" 
	d="
M438.810364,254.093887 
	C438.913818,252.164001 439.017273,250.722961 439.133240,249.107727 
	C450.055298,249.107727 460.636414,249.107727 471.211365,249.107727 
	C471.211365,255.779572 471.887970,262.292603 471.042694,268.601776 
	C469.948639,276.767395 461.874634,282.508453 454.144012,281.758545 
	C445.533051,280.923248 439.276306,274.560455 438.894073,266.072968 
	C438.721893,262.249359 438.829651,258.413177 438.810364,254.093887 
z"/>
<path fill="#F85867" opacity="1.000000" stroke="none" 
	d="
M295.185455,232.132568 
	C293.226746,232.132584 291.746887,232.132584 289.638123,232.132584 
	C289.250519,225.464630 288.781921,219.066315 288.623016,212.660294 
	C288.602051,211.816681 290.004944,210.593613 291.016663,210.122437 
	C299.849243,206.008987 308.742950,202.026794 318.177856,197.752213 
	C319.422882,208.594360 320.730743,219.983658 322.125793,232.132553 
	C313.127625,232.132553 304.395966,232.132553 295.185455,232.132568 
z"/>
<path fill="#F85867" opacity="1.000000" stroke="none" 
	d="
M225.014313,221.078369 
	C224.839310,224.848083 224.678329,228.145737 224.501114,231.775803 
	C213.583130,231.775803 203.058929,231.775803 191.972168,231.775803 
	C193.256226,220.230057 194.530121,208.775711 195.757050,197.743530 
	C205.305923,202.031769 214.642395,206.159973 223.885406,210.487747 
	C224.700836,210.869537 225.261734,212.536758 225.320023,213.639740 
	C225.442123,215.950348 225.150208,218.282822 225.014313,221.078369 
z"/>
<path fill="#F75866" opacity="1.000000" stroke="none" 
	d="
M269.883392,214.875153 
	C270.910065,215.299652 271.917175,215.711929 271.961670,216.210159 
	C272.417114,221.309540 272.716278,226.422836 273.080048,231.845062 
	C262.241699,231.845062 251.861465,231.845062 240.940628,231.845062 
	C241.302200,226.224335 241.650116,220.816208 242.030518,214.902817 
	C251.282227,214.902817 260.349640,214.902817 269.883392,214.875153 
z"/>
<path fill="#ACB3BA" opacity="1.000000" stroke="none" 
	d="
M166.167786,480.386566 
	C171.403229,479.926849 176.552261,479.932220 182.140747,479.908844 
	C182.580200,485.147705 182.580200,490.415253 182.580200,496.109100 
	C177.257050,496.109100 171.930649,496.109100 166.081390,496.109100 
	C166.081390,490.978149 166.081390,485.914886 166.167786,480.386566 
z"/>
<path fill="#ACB3BA" opacity="1.000000" stroke="none" 
	d="
M331.319458,480.350189 
	C336.562408,479.912170 341.704041,479.938477 347.295837,479.942139 
	C347.746063,485.188354 347.746063,490.457184 347.746063,496.130554 
	C342.390472,496.130554 337.068390,496.130554 331.218140,496.130554 
	C331.218140,490.938965 331.218140,485.876740 331.319458,480.350189 
z"/>
<path fill="#010203" opacity="1.000000" stroke="none" 
	d="
M401.999756,389.074158 
	C386.532776,389.074158 371.565704,389.074158 356.323944,389.074158 
	C356.323944,367.052490 356.323944,345.321747 356.323944,323.309998 
	C378.091553,323.309998 399.819702,323.309998 421.821716,323.309998 
	C421.821716,345.074005 421.821716,366.801819 421.821716,389.074158 
	C415.372559,389.074158 408.936096,389.074158 401.999756,389.074158 
M405.751221,357.492920 
	C405.751221,351.720642 405.751221,345.948395 405.751221,339.965698 
	C394.516571,339.965698 383.828003,339.965698 373.059387,339.965698 
	C373.059387,350.949219 373.059387,361.628235 373.059387,372.303345 
	C384.098358,372.303345 394.777435,372.303345 405.751160,372.303345 
	C405.751160,367.424286 405.751160,362.955566 405.751221,357.492920 
z"/>
<path fill="#010203" opacity="1.000000" stroke="none" 
	d="
M91.905609,341.000854 
	C91.905609,334.862122 91.905609,329.223083 91.905609,323.308289 
	C113.914253,323.308289 135.647659,323.308289 157.667389,323.308289 
	C157.667389,345.059937 157.667389,366.786957 157.667389,388.794678 
	C135.913956,388.794678 114.185890,388.794678 91.905609,388.794678 
	C91.905609,373.025360 91.905609,357.262970 91.905609,341.000854 
M119.519531,339.664734 
	C115.920013,339.664734 112.320496,339.664734 108.620529,339.664734 
	C108.620529,350.960022 108.620529,361.637360 108.620529,372.297119 
	C119.662445,372.297119 130.327133,372.297119 141.039734,372.297119 
	C141.039734,361.312347 141.039734,350.748627 141.039734,339.664581 
	C134.033066,339.664581 127.272797,339.664581 119.519531,339.664734 
z"/>
<path fill="#000000" opacity="1.000000" stroke="none" 
	d="
M215.806671,412.024994 
	C215.806671,409.756348 215.806671,407.977783 215.806671,405.974915 
	C221.381226,405.974915 226.454788,405.974915 231.834595,405.974915 
	C231.834595,411.144897 231.834595,416.229370 231.834595,421.706055 
	C226.829773,421.706055 221.628647,421.706055 215.806686,421.706055 
	C215.806686,418.699463 215.806686,415.607269 215.806671,412.024994 
z"/>
<path fill="#38BFF7" opacity="1.000000" stroke="none" 
	d="
M405.751190,357.989868 
	C405.751160,362.955566 405.751160,367.424286 405.751160,372.303345 
	C394.777435,372.303345 384.098358,372.303345 373.059387,372.303345 
	C373.059387,361.628235 373.059387,350.949219 373.059387,339.965698 
	C383.828003,339.965698 394.516571,339.965698 405.751221,339.965698 
	C405.751221,345.948395 405.751221,351.720642 405.751190,357.989868 
z"/>
<path fill="#38BFF7" opacity="1.000000" stroke="none" 
	d="
M120.016037,339.664673 
	C127.272797,339.664581 134.033066,339.664581 141.039734,339.664581 
	C141.039734,350.748627 141.039734,361.312347 141.039734,372.297119 
	C130.327133,372.297119 119.662445,372.297119 108.620529,372.297119 
	C108.620529,361.637360 108.620529,350.960022 108.620529,339.664734 
	C112.320496,339.664734 115.920013,339.664734 120.016037,339.664673 
z"/>
</svg>